<svg width="24" height="25" viewBox="0 0 24 25" fill="none" xmlns="http://www.w3.org/2000/svg">
<path d="M15.2521 5.363C15.9046 4.5785 16.3651 3.503 16.3651 2.426C16.3651 2.2685 16.3531 2.123 16.3201 2C15.2641 2.045 13.9951 2.705 13.2301 3.6035C12.6346 4.2755 12.0721 5.363 12.0721 6.44C12.0721 6.608 12.1066 6.7655 12.1171 6.821C12.1846 6.833 12.2971 6.8435 12.3991 6.8435C13.3531 6.8435 14.5441 6.215 15.2521 5.363ZM15.9946 7.079C14.4091 7.079 13.1176 8.0435 12.2971 8.0435C11.4106 8.0435 10.2646 7.1345 8.87106 7.1345C6.25356 7.1345 3.60156 9.299 3.60156 13.37C3.60156 15.9155 4.57956 18.605 5.79156 20.333C6.83706 21.7895 7.74756 23 9.06156 23C10.3651 23 10.9381 22.1375 12.5566 22.1375C14.1961 22.1375 14.5561 22.9775 15.9946 22.9775C17.4196 22.9775 18.3751 21.677 19.2646 20.387C20.2741 18.908 20.6896 17.4725 20.7016 17.405C20.6221 17.3825 17.8921 16.2725 17.8921 13.1555C17.8921 10.4645 20.0386 9.2555 20.1616 9.1655C18.7471 7.1345 16.5901 7.079 15.9946 7.079Z" fill="black"/>
</svg>
