<svg width="21" height="20" viewBox="0 0 21 20" fill="none" xmlns="http://www.w3.org/2000/svg">
<path d="M9.51562 16.998V13.998C9.51562 13.2024 9.19955 12.4393 8.63694 11.8767C8.07434 11.3141 7.31127 10.998 6.51562 10.998H3.51562C2.71998 10.998 1.95691 11.3141 1.3943 11.8767C0.831696 12.4393 0.515625 13.2024 0.515625 13.998V16.998C0.515625 17.7937 0.831696 18.5568 1.3943 19.1194C1.95691 19.682 2.71998 19.998 3.51562 19.998H6.51562C7.31127 19.998 8.07434 19.682 8.63694 19.1194C9.19955 18.5568 9.51562 17.7937 9.51562 16.998ZM1.51562 16.998V13.998C1.51562 13.4676 1.72634 12.9589 2.10141 12.5838C2.47648 12.2088 2.98519 11.998 3.51562 11.998H6.51562C7.04606 11.998 7.55476 12.2088 7.92984 12.5838C8.30491 12.9589 8.51562 13.4676 8.51562 13.998V16.998C8.51562 17.5285 8.30491 18.0372 7.92984 18.4123C7.55476 18.7873 7.04606 18.998 6.51562 18.998H3.51562C2.98519 18.998 2.47648 18.7873 2.10141 18.4123C1.72634 18.0372 1.51562 17.5285 1.51562 16.998ZM20.5156 13.998C20.5156 13.2024 20.1996 12.4393 19.6369 11.8767C19.0743 11.3141 18.3113 10.998 17.5156 10.998H14.5156C13.72 10.998 12.9569 11.3141 12.3943 11.8767C11.8317 12.4393 11.5156 13.2024 11.5156 13.998V16.998C11.5156 17.7937 11.8317 18.5568 12.3943 19.1194C12.9569 19.682 13.72 19.998 14.5156 19.998H17.5156C18.3113 19.998 19.0743 19.682 19.6369 19.1194C20.1996 18.5568 20.5156 17.7937 20.5156 16.998V13.998ZM19.5156 16.998C19.5156 17.5285 19.3049 18.0372 18.9298 18.4123C18.5548 18.7873 18.0461 18.998 17.5156 18.998H14.5156C13.9852 18.998 13.4765 18.7873 13.1014 18.4123C12.7263 18.0372 12.5156 17.5285 12.5156 16.998V13.998C12.5156 13.4676 12.7263 12.9589 13.1014 12.5838C13.4765 12.2088 13.9852 11.998 14.5156 11.998H17.5156C18.0461 11.998 18.5548 12.2088 18.9298 12.5838C19.3049 12.9589 19.5156 13.4676 19.5156 13.998V16.998ZM20.5156 2.99805C20.5156 2.2024 20.1996 1.43934 19.6369 0.876727C19.0743 0.314117 18.3113 -0.00195312 17.5156 -0.00195312H14.5156C13.72 -0.00195312 12.9569 0.314117 12.3943 0.876727C11.8317 1.43934 11.5156 2.2024 11.5156 2.99805V5.99805C11.5156 6.7937 11.8317 7.55676 12.3943 8.11937C12.9569 8.68198 13.72 8.99805 14.5156 8.99805H17.5156C18.3113 8.99805 19.0743 8.68198 19.6369 8.11937C20.1996 7.55676 20.5156 6.7937 20.5156 5.99805V2.99805ZM19.5156 5.99805C19.5156 6.52848 19.3049 7.03719 18.9298 7.41226C18.5548 7.78733 18.0461 7.99805 17.5156 7.99805H14.5156C13.9852 7.99805 13.4765 7.78733 13.1014 7.41226C12.7263 7.03719 12.5156 6.52848 12.5156 5.99805V2.99805C12.5156 2.46761 12.7263 1.95891 13.1014 1.58383C13.4765 1.20876 13.9852 0.998047 14.5156 0.998047H17.5156C18.0461 0.998047 18.5548 1.20876 18.9298 1.58383C19.3049 1.95891 19.5156 2.46761 19.5156 2.99805V5.99805ZM0.515625 2.99805V5.99805C0.515625 6.7937 0.831696 7.55676 1.3943 8.11937C1.95691 8.68198 2.71998 8.99805 3.51562 8.99805H6.51562C7.31127 8.99805 8.07434 8.68198 8.63694 8.11937C9.19955 7.55676 9.51562 6.7937 9.51562 5.99805V2.99805C9.51562 2.2024 9.19955 1.43934 8.63694 0.876727C8.07434 0.314117 7.31127 -0.00195312 6.51562 -0.00195312H3.51562C2.71998 -0.00195312 1.95691 0.314117 1.3943 0.876727C0.831696 1.43934 0.515625 2.2024 0.515625 2.99805ZM1.51562 2.99805C1.51562 2.46761 1.72634 1.95891 2.10141 1.58383C2.47648 1.20876 2.98519 0.998047 3.51562 0.998047H6.51562C7.04606 0.998047 7.55476 1.20876 7.92984 1.58383C8.30491 1.95891 8.51562 2.46761 8.51562 2.99805V5.99805C8.51562 6.52848 8.30491 7.03719 7.92984 7.41226C7.55476 7.78733 7.04606 7.99805 6.51562 7.99805H3.51562C2.98519 7.99805 2.47648 7.78733 2.10141 7.41226C1.72634 7.03719 1.51562 6.52848 1.51562 5.99805V2.99805ZM8.01562 14.236L4.57262 17.666L2.75062 15.844L3.48862 15.106L4.57262 16.194L7.27762 13.498L8.01562 14.236Z" fill="black"/>
</svg>
