<svg width="526" height="350" viewBox="0 0 526 350" fill="none" xmlns="http://www.w3.org/2000/svg">
<path d="M414.502 46.6831C364.305 40.1451 335.801 67.9841 268.314 71.0151C201.289 65.8001 175.732 37.0231 124.933 41.8951C70.2775 47.1311 27.9415 118.349 39.9885 189.595C52.0355 260.841 126.69 300.664 164.854 300.419C195.36 300.223 222.303 287.819 257.086 284.837C291.491 288.953 317.09 302.232 347.519 303.436C385.592 304.948 464.293 267.652 483.795 196.931C503.297 126.21 468.514 53.7111 414.502 46.6831Z" fill="#92E3A9"/>
<path opacity="0.7" d="M414.502 46.6831C364.305 40.1451 335.801 67.9841 268.314 71.0151C201.289 65.8001 175.732 37.0231 124.933 41.8951C70.2775 47.1311 27.9415 118.349 39.9885 189.595C52.0355 260.841 126.69 300.664 164.854 300.419C195.36 300.223 222.303 287.819 257.086 284.837C291.491 288.953 317.09 302.232 347.519 303.436C385.592 304.948 464.293 267.652 483.795 196.931C503.297 126.21 468.514 53.7111 414.502 46.6831Z" fill="white"/>
<path d="M26.2617 317.023H515.877" stroke="#263238" stroke-width="0.7" stroke-linecap="round" stroke-linejoin="round"/>
<g opacity="0.15">
<path d="M143.218 55.7338C140.264 58.6388 131.521 61.7608 131.514 61.7608C131.507 61.7608 131.206 55.3698 131.241 54.9638C131.619 50.2598 135.119 41.3838 140.271 40.1728C143.981 39.2978 147.271 42.0768 147.768 45.7028C148.265 49.3288 145.738 53.2558 143.218 55.7338Z" fill="black"/>
<path d="M137.926 173.474C137.968 173.684 138.01 173.88 138.045 174.09L135.301 176.624C135.147 175.777 134.993 174.923 134.846 174.034C134.405 171.528 133.992 168.84 133.593 166.075C130.928 166.033 128.268 165.834 125.627 165.48C124.143 169.19 118.893 174.874 118.207 175.602C119.915 177.429 121.602 179.193 123.219 180.838C124.325 181.967 125.398 183.045 126.439 184.072L123.163 185.332L120.951 183.008C119.208 181.153 117.381 179.137 115.519 177.058C114.665 177.604 107.658 182.056 103.808 182.616C100.308 183.12 95.723 182.791 93.07 180.159C90.417 177.527 90.27 173.271 93.2029 170.849C97.284 167.482 106.468 170.065 110.444 172.613C110.682 172.767 113.048 174.678 114.518 175.91C113.762 175.056 113.02 174.23 112.257 173.341C110.724 171.591 109.254 169.799 107.665 167.874L105.432 164.983C104.669 164.031 103.983 162.925 103.248 161.896C101.582 159.467 100.021 156.919 98.502 154.322C96.969 155.659 91.439 160.314 88.051 161.322C84.663 162.33 80.0919 162.722 77.068 160.524C74.044 158.326 73.253 154.14 75.787 151.298C79.287 147.35 88.7859 148.498 93.098 150.43C93.371 150.549 96.311 152.271 97.914 153.23C97.011 151.662 96.108 150.101 95.247 148.484C92.762 143.822 90.396 139.02 88.016 134.239C87.3159 132.776 86.539 131.327 85.797 129.871C85.2579 130.354 78.797 136.031 75.01 137.186C71.636 138.215 67.051 138.586 64.034 136.388C61.017 134.19 60.212 130.004 62.753 127.162C66.253 123.214 75.745 124.362 80.064 126.294C80.386 126.441 84.621 128.926 85.664 129.605C84.033 126.406 82.381 123.228 80.624 120.162C78.2717 116.011 75.6528 112.018 72.784 108.206C72.532 108.43 65.833 114.387 61.941 115.57C58.567 116.599 53.982 116.97 50.958 114.772C47.934 112.574 47.143 108.388 49.684 105.546C53.184 101.598 62.676 102.746 66.995 104.678C67.331 104.832 71.895 107.478 72.672 108.045C72.504 107.828 72.357 107.583 72.182 107.345C69.2017 103.6 65.8914 100.131 62.291 96.978C60.331 95.207 58.35 93.625 56.397 92.134C55.256 93.366 50.013 98.966 46.632 100.415C43.384 101.815 38.869 102.676 35.628 100.828C32.387 98.98 31.134 94.906 33.339 91.798C36.412 87.493 45.939 87.598 50.454 89.04C50.699 89.117 53.1 90.181 54.836 90.979C53.94 90.321 53.03 89.621 52.162 89.005C48.907 86.681 45.778 84.763 42.999 83.076C41.41 82.131 39.954 81.312 38.582 80.556C36.832 81.186 29.762 83.65 26.157 83.356C22.552 83.062 18.226 81.9 16.203 78.743C14.18 75.586 14.943 71.4 18.338 69.678C23.042 67.27 31.456 71.778 34.795 75.11C35.082 75.404 39.072 80.437 38.995 80.472L38.89 80.507C40.227 81.207 41.648 81.977 43.181 82.845C45.981 84.469 49.187 86.345 52.505 88.592C56.1059 90.986 59.5629 93.5898 62.858 96.39C66.5715 99.5053 69.9988 102.947 73.099 106.673C73.1378 106.717 73.1729 106.763 73.204 106.813C72.623 105.371 71.104 101.297 71.062 100.975C69.956 96.383 70.516 86.856 75.031 84.098C78.286 82.117 82.297 83.72 83.879 87.017C85.461 90.314 84.306 94.829 82.682 97.965C80.862 101.5 74.086 106.841 73.547 107.268C76.614 111.135 79.4202 115.201 81.947 119.441C83.424 121.905 84.845 124.432 86.231 126.98C85.769 125.72 85.37 124.593 85.328 124.432C84.222 119.84 84.782 110.313 89.297 107.562C92.552 105.574 96.563 107.184 98.145 110.474C99.727 113.764 98.572 118.286 96.9549 121.422C95.338 124.558 89.626 129.276 88.107 130.487C88.625 131.474 89.164 132.447 89.682 133.434C92.167 138.166 94.631 142.898 97.193 147.434C98.089 149.044 99.041 150.591 99.993 152.152C99.587 151.032 99.251 150.087 99.216 149.94C98.11 145.348 98.67 135.821 103.185 133.063C106.433 131.082 110.451 132.685 112.033 135.982C113.615 139.279 112.453 143.794 110.836 146.93C109.219 150.066 104.06 154.322 102.261 155.778C103.276 157.339 104.284 158.907 105.334 160.384C106.076 161.371 106.734 162.372 107.518 163.324L109.814 166.173C111.333 167.923 112.894 169.75 114.42 171.423C115.477 172.599 116.52 173.691 117.535 174.804C116.618 173.215 114.889 170.058 114.777 169.778C113.344 165.877 112.937 161.674 113.594 157.57C113.417 157.142 113.279 156.699 113.181 156.247C112.432 152.67 114.644 148.953 118.431 148.547C123.695 147.987 129.925 155.211 131.836 159.53C131.955 159.782 132.865 162.687 133.411 164.521C133.257 163.394 133.089 162.295 132.942 161.133C132.634 158.83 132.396 156.52 132.13 154.042C132.046 152.838 131.955 151.62 131.871 150.395C131.787 149.17 131.794 147.882 131.745 146.615C131.703 143.675 131.801 140.686 131.969 137.683C129.953 137.949 122.771 138.782 119.369 137.774C115.967 136.766 111.963 134.547 110.647 131.047C109.331 127.547 110.99 123.62 114.672 122.647C119.789 121.303 127.048 127.498 129.589 131.474C129.75 131.726 131.255 134.785 132.046 136.479C132.165 134.673 132.27 132.874 132.445 131.054C132.942 125.79 133.614 120.484 134.265 115.185C134.468 113.561 134.643 111.937 134.832 110.285C134.132 110.383 125.606 111.559 121.798 110.432C118.417 109.424 114.392 107.205 113.083 103.705C111.774 100.205 113.419 96.278 117.108 95.305C122.218 93.961 129.477 100.156 132.018 104.132C132.214 104.433 134.37 108.843 134.867 109.984C135.273 106.421 135.644 102.858 135.868 99.33C136.2 94.5718 136.221 89.797 135.931 85.036C135.595 85.078 126.719 86.352 122.82 85.19C119.439 84.189 115.414 81.963 114.105 78.47C112.796 74.977 114.441 71.036 118.13 70.07C123.24 68.719 130.499 74.914 133.04 78.89C133.243 79.205 135.56 83.951 135.924 84.84C135.924 84.56 135.924 84.273 135.924 84C135.473 79.2669 134.609 74.5823 133.341 70C132.641 67.438 131.899 65.03 131.094 62.706C129.463 63.112 121.994 64.883 118.375 64.225C114.875 63.602 110.675 61.838 108.974 58.506C107.273 55.174 108.491 51.079 112.047 49.714C116.982 47.81 124.878 53.172 127.846 56.847C128.007 57.043 129.421 59.262 130.429 60.886C130.044 59.843 129.673 58.786 129.288 57.764C127.888 54.033 126.306 50.701 124.913 47.761C124.108 46.095 123.345 44.611 122.617 43.225C120.811 42.784 113.559 40.936 110.717 38.731C107.875 36.526 104.97 33.047 105.012 29.316C105.054 25.585 108.008 22.505 111.795 22.932C117.052 23.52 121.595 31.913 122.526 36.54C122.603 36.939 123.149 43.344 123.058 43.323H122.953C123.653 44.639 124.437 46.067 125.242 47.635C126.698 50.547 128.322 53.858 129.848 57.575C131.529 61.5443 132.983 65.6062 134.202 69.741C135.577 74.3882 136.538 79.1482 137.072 83.965C137.068 84.0233 137.068 84.0817 137.072 84.14C137.38 82.621 138.388 78.407 138.507 78.092C140.117 73.647 145.836 66.017 151.107 66.192C154.915 66.332 157.407 69.888 156.875 73.507C156.343 77.126 152.92 80.255 149.875 81.977C146.375 83.923 137.8 84.637 137.121 84.693C137.539 89.6095 137.631 94.5484 137.394 99.477C137.275 102.347 137.058 105.238 136.813 108.129C137.121 106.827 137.408 105.665 137.464 105.504C139.074 101.066 144.8 93.429 150.064 93.604C153.872 93.737 156.364 97.293 155.832 100.912C155.3 104.531 151.877 107.667 148.832 109.389C145.787 111.111 138.395 111.895 136.456 112.07C136.344 113.176 136.253 114.289 136.141 115.395C135.609 120.715 135.049 126.021 134.664 131.243C134.531 133.077 134.461 134.897 134.391 136.717C134.664 135.555 134.909 134.582 134.958 134.442C136.568 129.997 142.294 122.367 147.558 122.542C151.366 122.682 153.858 126.238 153.326 129.857C152.794 133.476 149.371 136.605 146.291 138.327C143.211 140.049 136.561 140.756 134.258 140.973C134.258 142.842 134.216 144.704 134.258 146.51C134.328 147.749 134.314 148.939 134.454 150.171C134.594 151.403 134.685 152.607 134.797 153.811C135.098 156.114 135.392 158.494 135.742 160.734C135.973 162.295 136.225 163.779 136.442 165.27C136.561 163.436 136.855 159.852 136.918 159.558C137.835 154.924 142.336 146.517 147.586 145.901C151.373 145.46 154.341 148.603 154.397 152.257C154.453 155.911 151.513 159.53 148.734 161.7C145.668 164.087 137.618 166.054 136.61 166.292C137.051 168.812 137.485 171.213 137.926 173.474Z" fill="black"/>
<path d="M56.2412 91.1958C56.1852 91.2728 52.4542 86.0368 52.2582 85.6798C49.9832 81.5428 48.0092 72.2118 51.6352 68.3618C54.2462 65.5618 58.5372 66.0798 60.9382 68.8378C63.3392 71.5958 63.4092 76.2578 62.6742 79.7088C61.8132 83.7618 56.2412 91.1888 56.2412 91.1958Z" fill="black"/>
</g>
<g opacity="0.15">
<path d="M341.312 74.1159C344.266 77.0209 353.009 80.1429 353.016 80.1429C353.023 80.1429 353.324 73.7519 353.289 73.3459C352.911 68.6419 349.411 59.7659 344.259 58.5549C340.549 57.6799 337.259 60.4589 336.769 64.0849C336.279 67.7109 338.799 71.6379 341.312 74.1159Z" fill="black"/>
<path d="M346.603 191.856C346.561 192.066 346.526 192.262 346.484 192.472L349.235 195.006C349.382 194.159 349.536 193.305 349.69 192.416C350.124 189.91 350.537 187.222 350.936 184.457C353.603 184.415 356.265 184.216 358.909 183.862C360.386 187.572 365.643 193.256 366.322 193.984C364.614 195.811 362.927 197.575 361.317 199.213C360.204 200.347 359.133 201.425 358.09 202.454L361.366 203.707C362.066 202.958 362.822 202.188 363.578 201.39C365.321 199.535 367.148 197.519 369.01 195.44C369.864 195.986 376.878 200.438 380.728 200.998C384.228 201.502 388.806 201.173 391.459 198.541C394.112 195.909 394.259 191.653 391.326 189.231C387.245 185.864 378.026 188.447 374.085 190.995C373.847 191.142 371.488 193.06 370.011 194.292C370.767 193.438 371.509 192.612 372.279 191.723C373.805 189.973 375.275 188.181 376.864 186.256L379.097 183.365C379.86 182.413 380.546 181.307 381.288 180.278C382.947 177.849 384.508 175.301 386.027 172.704C387.567 174.041 393.09 178.696 396.478 179.704C399.866 180.712 404.437 181.104 407.461 178.906C410.485 176.708 411.276 172.522 408.742 169.68C405.242 165.732 395.75 166.88 391.431 168.812C391.158 168.931 388.218 170.653 386.615 171.612C387.518 170.044 388.428 168.483 389.282 166.866C391.767 162.197 394.133 157.402 396.52 152.621C397.22 151.158 397.99 149.709 398.732 148.253C399.271 148.736 405.732 154.413 409.519 155.568C412.893 156.59 417.478 156.968 420.495 154.77C423.512 152.572 424.317 148.386 421.776 145.544C418.276 141.596 408.784 142.744 404.465 144.676C404.143 144.816 399.908 147.301 398.865 147.987C400.496 144.788 402.148 141.61 403.905 138.544C406.257 134.393 408.876 130.4 411.745 126.588C411.997 126.812 418.696 132.769 422.588 133.952C425.962 134.974 430.547 135.352 433.571 133.154C436.595 130.956 437.386 126.77 434.845 123.928C431.345 119.98 421.853 121.128 417.534 123.06C417.198 123.207 412.634 125.86 411.857 126.427C412.025 126.21 412.172 125.965 412.347 125.727C415.327 121.982 418.637 118.513 422.238 115.36C424.198 113.589 426.179 112.007 428.139 110.516C429.273 111.748 434.516 117.348 437.939 118.797C441.18 120.197 445.695 121.058 448.936 119.21C452.177 117.362 453.437 113.281 451.225 110.18C448.152 105.875 438.625 105.98 434.11 107.422C433.865 107.499 431.471 108.563 429.728 109.361C430.624 108.703 431.534 108.003 432.402 107.387C435.657 105.063 438.786 103.138 441.565 101.458C443.161 100.513 444.61 99.694 445.982 98.938C447.732 99.568 454.802 102.032 458.407 101.738C462.012 101.444 466.338 100.17 468.361 97.034C470.384 93.898 469.621 89.705 466.226 87.934C461.522 85.526 453.108 90.034 449.769 93.366C449.482 93.653 445.492 98.693 445.569 98.728L445.674 98.763C444.337 99.463 442.916 100.233 441.383 101.101C438.583 102.725 435.384 104.601 432.059 106.848C428.443 109.292 424.974 111.948 421.671 114.8C417.949 117.905 414.512 121.337 411.402 125.055L411.297 125.188C411.878 123.753 413.397 119.679 413.439 119.357C414.545 114.765 413.985 105.238 409.47 102.48C406.222 100.499 402.204 102.102 400.622 105.399C399.04 108.696 400.202 113.211 401.819 116.347C403.639 119.847 410.415 125.223 410.919 125.65C407.849 129.515 405.043 133.582 402.519 137.823C401.035 140.287 399.614 142.814 398.228 145.362C398.69 144.102 399.089 142.975 399.131 142.814C400.237 138.222 399.677 128.695 395.162 125.937C391.907 123.956 387.896 125.559 386.314 128.856C384.732 132.153 385.887 136.668 387.504 139.804C389.121 142.94 394.833 147.658 396.352 148.869C395.834 149.856 395.302 150.829 394.777 151.816C392.292 156.548 389.828 161.28 387.266 165.851C386.37 167.461 385.418 169.008 384.466 170.569C384.872 169.449 385.208 168.504 385.243 168.357C386.349 163.758 385.789 154.238 381.281 151.48C378.026 149.499 374.008 151.102 372.433 154.399C370.858 157.696 372.006 162.211 373.623 165.347C375.24 168.483 380.399 172.739 382.198 174.195C381.183 175.756 380.175 177.324 379.125 178.801C378.383 179.788 377.725 180.789 376.941 181.741L374.652 184.583C373.126 186.34 371.565 188.16 370.039 189.84C368.982 191.016 367.939 192.108 366.924 193.221C367.841 191.625 369.57 188.475 369.682 188.195C371.114 184.294 371.522 180.09 370.865 175.987C371.041 175.559 371.179 175.116 371.278 174.664C372.027 171.087 369.815 167.37 366.028 166.964C360.764 166.411 354.534 173.635 352.623 177.954C352.511 178.206 351.594 181.111 351.048 182.945C351.202 181.818 351.37 180.719 351.517 179.557C351.825 177.254 352.063 174.944 352.329 172.466C352.413 171.262 352.504 170.044 352.588 168.819C352.672 167.594 352.672 166.306 352.714 165.039C352.756 162.099 352.658 159.11 352.49 156.107C354.513 156.373 361.688 157.206 365.09 156.198C368.492 155.19 372.503 152.971 373.812 149.471C375.121 145.971 373.469 142.044 369.787 141.071C364.67 139.727 357.411 145.922 354.87 149.898C354.709 150.15 353.204 153.209 352.413 154.903C352.301 153.097 352.196 151.298 352.021 149.478C351.517 144.214 350.845 138.908 350.194 133.602C349.991 131.985 349.816 130.361 349.627 128.744C350.327 128.842 358.853 130.018 362.661 128.891C366.042 127.883 370.067 125.664 371.376 122.164C372.685 118.664 371.04 114.737 367.358 113.764C362.241 112.42 354.982 118.615 352.441 122.591C352.245 122.892 350.089 127.295 349.592 128.443C349.186 124.88 348.815 121.317 348.591 117.789C348.259 113.031 348.238 108.256 348.528 103.495C348.864 103.537 357.74 104.811 361.639 103.649C365.02 102.641 369.045 100.422 370.354 96.929C371.663 93.436 370.018 89.495 366.336 88.529C361.219 87.185 353.96 93.38 351.419 97.356C351.216 97.671 348.899 102.417 348.542 103.306C348.542 103.026 348.542 102.739 348.542 102.466C349.008 97.6923 349.898 92.9697 351.202 88.354C351.867 85.792 352.644 83.384 353.449 81.06C355.08 81.466 362.549 83.237 366.168 82.579C369.668 81.956 373.868 80.185 375.576 76.86C377.284 73.535 376.052 69.433 372.496 68.061C367.596 66.164 359.665 71.561 356.704 75.201C356.543 75.397 355.122 77.616 354.121 79.24C354.499 78.197 354.87 77.14 355.255 76.118C356.69 72.387 358.237 69.055 359.63 66.115C360.435 64.449 361.198 62.958 361.926 61.579C363.732 61.138 370.984 59.29 373.826 57.085C376.668 54.88 379.573 51.401 379.531 47.67C379.489 43.939 376.542 40.859 372.762 41.3C367.505 41.888 362.962 50.281 362.031 54.908C361.947 55.307 361.401 61.712 361.492 61.691H361.604C360.904 63.007 360.113 64.435 359.308 66.003C357.852 68.915 356.228 72.226 354.709 75.943C353.021 79.9283 351.57 84.0093 350.362 88.165C348.98 92.8105 348.019 97.5711 347.492 102.389C347.492 102.445 347.492 102.508 347.492 102.564C347.184 101.045 346.176 96.831 346.057 96.516C344.447 92.071 338.728 84.441 333.457 84.616C329.649 84.756 327.157 88.312 327.689 91.931C328.221 95.55 331.644 98.679 334.689 100.401C338.189 102.347 346.764 103.061 347.45 103.117C347.025 108.033 346.932 112.972 347.17 117.901C347.289 120.771 347.506 123.662 347.751 126.553C347.443 125.251 347.156 124.089 347.1 123.928C345.49 119.49 339.764 111.853 334.5 112.028C330.692 112.161 328.235 115.717 328.732 119.336C329.229 122.955 332.687 126.091 335.767 127.813C338.847 129.535 346.204 130.319 348.15 130.494C348.255 131.6 348.346 132.706 348.458 133.819C348.997 139.139 349.55 144.445 349.935 149.667C350.068 151.501 350.138 153.321 350.215 155.141C349.935 153.979 349.69 153.006 349.641 152.866C348.031 148.421 342.312 140.791 337.041 140.966C333.233 141.106 330.776 144.662 331.273 148.281C331.77 151.9 335.228 155.029 338.273 156.751C341.318 158.473 348.003 159.18 350.306 159.397C350.306 161.266 350.348 163.128 350.306 164.934C350.229 166.173 350.25 167.363 350.103 168.595C349.956 169.827 349.879 171.031 349.767 172.235C349.466 174.538 349.165 176.918 348.815 179.158C348.584 180.719 348.332 182.203 348.115 183.694C348.003 181.86 347.702 178.276 347.639 177.982C346.722 173.348 342.221 164.941 336.971 164.325C333.184 163.884 330.216 167.027 330.16 170.681C330.104 174.335 333.044 177.954 335.83 180.117C338.889 182.511 346.939 184.478 347.947 184.716C347.478 187.194 347.044 189.595 346.603 191.856Z" fill="black"/>
<path d="M428.285 109.578C428.348 109.655 432.072 104.419 432.268 104.062C434.55 99.9249 436.524 90.5939 432.898 86.7439C430.28 83.9439 425.989 84.4619 423.595 87.2199C421.201 89.9779 421.117 94.6399 421.852 98.0909C422.713 102.144 428.285 109.571 428.285 109.578Z" fill="black"/>
</g>
<path d="M347.133 301.882V276.038C347.135 272.023 348.731 268.173 351.57 265.334C354.409 262.495 358.259 260.899 362.274 260.897H219.516C215.5 260.897 211.649 262.492 208.81 265.332C205.97 268.171 204.375 272.022 204.375 276.038V301.882C204.374 303.871 204.765 305.84 205.526 307.677C206.286 309.515 207.401 311.184 208.808 312.59C210.214 313.996 211.883 315.112 213.721 315.872C215.558 316.633 217.527 317.024 219.516 317.023H362.274C358.258 317.023 354.407 315.428 351.568 312.588C348.728 309.749 347.133 305.898 347.133 301.882Z" fill="#263238" stroke="#263238" stroke-width="0.7" stroke-linecap="round" stroke-linejoin="round"/>
<path d="M489.401 262.948L491.102 261.828C491.191 261.767 491.258 261.679 491.293 261.577C491.329 261.475 491.331 261.364 491.3 261.261C491.269 261.157 491.206 261.066 491.12 261.001C491.034 260.936 490.93 260.899 490.822 260.897H362.274C358.259 260.899 354.409 262.495 351.57 265.334C348.73 268.173 347.135 272.023 347.133 276.038V301.882C347.133 305.898 348.728 309.749 351.567 312.588C354.407 315.428 358.258 317.023 362.274 317.023H490.822C490.932 317.026 491.041 316.992 491.13 316.927C491.219 316.862 491.285 316.77 491.317 316.664C491.349 316.559 491.345 316.445 491.306 316.342C491.267 316.238 491.195 316.151 491.102 316.092L489.401 314.972V262.948Z" fill="#949494" stroke="#263238" stroke-width="0.7" stroke-linecap="round" stroke-linejoin="round"/>
<path d="M369.849 262.948H489.402V315H369.849C364.569 315 359.506 312.903 355.772 309.169C352.039 305.436 349.941 300.372 349.941 295.092V282.856C349.941 277.576 352.039 272.512 355.772 268.779C359.506 265.045 364.569 262.948 369.849 262.948Z" fill="white" stroke="#263238" stroke-width="0.7" stroke-linecap="round" stroke-linejoin="round"/>
<path d="M354.301 272.524H404.456" stroke="#263238" stroke-width="0.7" stroke-linecap="round" stroke-linejoin="round"/>
<path d="M391.289 277.284H438.084" stroke="#263238" stroke-width="0.7" stroke-linecap="round" stroke-linejoin="round"/>
<path d="M419.589 283.171H374.754" stroke="#263238" stroke-width="0.7" stroke-linecap="round" stroke-linejoin="round"/>
<path d="M355.422 301.105H384.843" stroke="#263238" stroke-width="0.7" stroke-linecap="round" stroke-linejoin="round"/>
<path d="M377.281 305.305H421.269" stroke="#263238" stroke-width="0.7" stroke-linecap="round" stroke-linejoin="round"/>
<path d="M371.953 309.232H383.72" stroke="#263238" stroke-width="0.7" stroke-linecap="round" stroke-linejoin="round"/>
<path d="M405.023 297.185H479.832" stroke="#263238" stroke-width="0.7" stroke-linecap="round" stroke-linejoin="round"/>
<path d="M488.52 285.131H473.113" stroke="#263238" stroke-width="0.7" stroke-linecap="round" stroke-linejoin="round"/>
<path d="M485.999 281.211H470.305" stroke="#263238" stroke-width="0.7" stroke-linecap="round" stroke-linejoin="round"/>
<path d="M485.998 306.432H446.77" stroke="#263238" stroke-width="0.7" stroke-linecap="round" stroke-linejoin="round"/>
<path d="M340.399 245.49V219.646C340.398 217.657 340.789 215.688 341.549 213.851C342.31 212.013 343.425 210.344 344.831 208.938C346.237 207.531 347.907 206.416 349.744 205.656C351.582 204.895 353.551 204.504 355.54 204.505H212.775C210.787 204.505 208.818 204.897 206.981 205.658C205.145 206.419 203.476 207.534 202.071 208.94C200.665 210.346 199.551 212.015 198.791 213.852C198.03 215.689 197.64 217.658 197.641 219.646V245.49C197.641 249.504 199.235 253.354 202.073 256.194C204.911 259.033 208.76 260.629 212.775 260.631H355.575C353.583 260.635 351.611 260.247 349.77 259.488C347.929 258.73 346.255 257.615 344.846 256.209C343.436 254.802 342.318 253.131 341.554 251.292C340.791 249.453 340.399 247.481 340.399 245.49Z" fill="#8C8C8C" stroke="#263238" stroke-width="0.7" stroke-linecap="round" stroke-linejoin="round"/>
<path d="M482.659 206.556L484.367 205.436C484.461 205.377 484.533 205.29 484.572 205.186C484.611 205.083 484.614 204.97 484.583 204.864C484.551 204.758 484.485 204.666 484.396 204.601C484.306 204.536 484.198 204.502 484.087 204.505H355.539C353.551 204.504 351.582 204.895 349.744 205.656C347.907 206.416 346.237 207.532 344.831 208.938C343.425 210.344 342.31 212.013 341.549 213.851C340.789 215.688 340.398 217.657 340.398 219.646V245.49C340.398 249.506 341.994 253.357 344.833 256.196C347.673 259.036 351.524 260.631 355.539 260.631H484.087C484.195 260.629 484.3 260.592 484.386 260.527C484.472 260.462 484.535 260.371 484.566 260.267C484.597 260.164 484.595 260.053 484.559 259.951C484.523 259.85 484.456 259.762 484.367 259.7L482.659 258.58V206.556Z" fill="#949494" stroke="#263238" stroke-width="0.7" stroke-linecap="round" stroke-linejoin="round"/>
<path d="M363.1 206.556H482.66V258.58H363.1C357.826 258.578 352.769 256.484 349.038 252.756C345.306 249.029 343.207 243.974 343.199 238.7V226.464C343.199 221.185 345.296 216.123 349.028 212.389C352.76 208.656 357.821 206.558 363.1 206.556Z" fill="white" stroke="#263238" stroke-width="0.7" stroke-linecap="round" stroke-linejoin="round"/>
<path d="M347.566 216.132H397.721" stroke="#263238" stroke-width="0.7" stroke-linecap="round" stroke-linejoin="round"/>
<path d="M384.555 220.892H431.35" stroke="#263238" stroke-width="0.7" stroke-linecap="round" stroke-linejoin="round"/>
<path d="M412.855 226.779H368.02" stroke="#263238" stroke-width="0.7" stroke-linecap="round" stroke-linejoin="round"/>
<path d="M348.688 244.713H378.108" stroke="#263238" stroke-width="0.7" stroke-linecap="round" stroke-linejoin="round"/>
<path d="M370.539 248.913H414.534" stroke="#263238" stroke-width="0.7" stroke-linecap="round" stroke-linejoin="round"/>
<path d="M365.219 252.833H376.986" stroke="#263238" stroke-width="0.7" stroke-linecap="round" stroke-linejoin="round"/>
<path d="M398.281 240.786H473.097" stroke="#263238" stroke-width="0.7" stroke-linecap="round" stroke-linejoin="round"/>
<path d="M481.786 228.739H466.379" stroke="#263238" stroke-width="0.7" stroke-linecap="round" stroke-linejoin="round"/>
<path d="M479.264 224.819H463.57" stroke="#263238" stroke-width="0.7" stroke-linecap="round" stroke-linejoin="round"/>
<path d="M479.263 250.033H440.035" stroke="#263238" stroke-width="0.7" stroke-linecap="round" stroke-linejoin="round"/>
<path d="M458.796 290.521L447.267 278.992L435.766 290.521V224.777H458.796V290.521Z" fill="#263238" stroke="#263238" stroke-width="0.7" stroke-linecap="round" stroke-linejoin="round"/>
<path d="M352.907 189.098V163.247C352.905 159.233 351.309 155.383 348.469 152.545C345.63 149.707 341.78 148.113 337.766 148.113H480.524C482.512 148.112 484.48 148.503 486.317 149.263C488.154 150.023 489.823 151.138 491.23 152.543C492.636 153.949 493.751 155.617 494.512 157.454C495.273 159.29 495.665 161.259 495.665 163.247V189.098C495.665 191.086 495.273 193.055 494.512 194.891C493.751 196.728 492.636 198.396 491.23 199.802C489.823 201.207 488.154 202.322 486.317 203.082C484.48 203.842 482.512 204.233 480.524 204.232H337.766C341.78 204.232 345.63 202.638 348.469 199.8C351.309 196.962 352.905 193.112 352.907 189.098Z" fill="#92E3A9" stroke="#263238" stroke-width="0.7" stroke-linecap="round" stroke-linejoin="round"/>
<path d="M210.641 150.157L208.94 149.044C208.846 148.985 208.774 148.898 208.735 148.794C208.696 148.691 208.693 148.577 208.724 148.472C208.756 148.366 208.822 148.273 208.911 148.209C209.001 148.144 209.109 148.11 209.22 148.113H337.768C341.782 148.113 345.632 149.707 348.471 152.545C351.311 155.383 352.907 159.233 352.909 163.247V189.098C352.907 193.112 351.311 196.962 348.471 199.8C345.632 202.638 341.782 204.232 337.768 204.232H209.22C209.109 204.235 209.001 204.201 208.911 204.136C208.822 204.071 208.756 203.979 208.724 203.873C208.693 203.767 208.696 203.654 208.735 203.551C208.774 203.447 208.846 203.36 208.94 203.301L210.641 202.188V150.157Z" fill="#949494" stroke="#263238" stroke-width="0.7" stroke-linecap="round" stroke-linejoin="round"/>
<path d="M330.194 202.188H210.641V150.164H330.194C335.472 150.164 340.535 152.26 344.268 155.992C348.001 159.724 350.1 164.786 350.102 170.065V182.245C350.106 184.862 349.595 187.455 348.596 189.874C347.598 192.294 346.132 194.492 344.283 196.345C342.434 198.197 340.238 199.667 337.82 200.669C335.402 201.672 332.811 202.188 330.194 202.188Z" fill="white" stroke="#263238" stroke-width="0.7" stroke-linecap="round" stroke-linejoin="round"/>
<path d="M345.74 159.733H295.578" stroke="#263238" stroke-width="0.7" stroke-linecap="round" stroke-linejoin="round"/>
<path d="M308.752 164.5H261.957" stroke="#263238" stroke-width="0.7" stroke-linecap="round" stroke-linejoin="round"/>
<path d="M280.449 170.38H325.277" stroke="#263238" stroke-width="0.7" stroke-linecap="round" stroke-linejoin="round"/>
<path d="M344.612 188.314H315.191" stroke="#263238" stroke-width="0.7" stroke-linecap="round" stroke-linejoin="round"/>
<path d="M322.757 192.521H278.762" stroke="#263238" stroke-width="0.7" stroke-linecap="round" stroke-linejoin="round"/>
<path d="M328.087 196.441H316.312" stroke="#263238" stroke-width="0.7" stroke-linecap="round" stroke-linejoin="round"/>
<path d="M295.019 184.394H220.203" stroke="#263238" stroke-width="0.7" stroke-linecap="round" stroke-linejoin="round"/>
<path d="M211.516 172.347H226.93" stroke="#263238" stroke-width="0.7" stroke-linecap="round" stroke-linejoin="round"/>
<path d="M214.043 168.42H229.73" stroke="#263238" stroke-width="0.7" stroke-linecap="round" stroke-linejoin="round"/>
<path d="M214.043 193.641H253.271" stroke="#263238" stroke-width="0.7" stroke-linecap="round" stroke-linejoin="round"/>
<path d="M370.059 185.444V167.048H374.392C375.589 166.995 376.784 167.205 377.892 167.664C378.707 168.043 379.349 168.716 379.691 169.547C380.075 170.578 380.256 171.674 380.223 172.774V179.494C380.254 180.626 380.073 181.753 379.691 182.819C379.362 183.673 378.732 184.378 377.92 184.8C376.854 185.277 375.691 185.497 374.525 185.444H370.059ZM373.419 183.106H374.441C375.021 183.156 375.601 183.013 376.093 182.7C376.445 182.395 376.665 181.967 376.709 181.503C376.792 180.867 376.829 180.226 376.821 179.585V172.543C376.834 171.942 376.783 171.341 376.667 170.751C376.623 170.546 376.538 170.351 376.418 170.18C376.298 170.008 376.144 169.862 375.967 169.75C375.468 169.503 374.912 169.394 374.357 169.435H373.384L373.419 183.106Z" fill="#263238"/>
<path d="M382.789 185.444V167.048H386.107V185.444H382.789Z" fill="#263238"/>
<path d="M393.899 185.696C392.785 185.759 391.679 185.481 390.728 184.898C389.969 184.371 389.406 183.608 389.125 182.728C388.806 181.704 388.652 180.636 388.67 179.564V172.998C388.65 171.891 388.803 170.788 389.125 169.729C389.396 168.854 389.963 168.099 390.728 167.594C391.681 167.119 392.728 166.863 393.793 166.846C394.858 166.829 395.913 167.051 396.881 167.496C397.594 167.912 398.137 168.567 398.414 169.344C398.732 170.243 398.886 171.191 398.869 172.144V173.691H395.642V172.102C395.646 171.634 395.621 171.167 395.565 170.702C395.533 170.326 395.381 169.97 395.131 169.687C394.965 169.546 394.772 169.44 394.564 169.376C394.355 169.312 394.136 169.292 393.92 169.316C393.465 169.277 393.012 169.418 392.66 169.708C392.381 170.002 392.202 170.377 392.149 170.779C392.069 171.279 392.031 171.785 392.037 172.291V180.278C392.024 180.833 392.076 181.387 392.191 181.93C392.267 182.311 392.473 182.655 392.772 182.903C393.107 183.138 393.511 183.254 393.92 183.232C394.135 183.255 394.353 183.231 394.558 183.162C394.763 183.093 394.951 182.981 395.11 182.833C395.362 182.537 395.516 182.17 395.551 181.783C395.616 181.293 395.646 180.8 395.642 180.306V178.647H398.869V180.124C398.884 181.105 398.737 182.082 398.435 183.015C398.168 183.825 397.639 184.522 396.93 184.996C396.008 185.518 394.955 185.761 393.899 185.696Z" fill="#263238"/>
<path d="M403.05 185.444V169.526H400.117V167.048H409.301V169.526H406.417V185.444H403.05Z" fill="#263238"/>
<path d="M411.062 185.444V167.048H414.38V185.444H411.062Z" fill="#263238"/>
<path d="M422.215 185.696C421.131 185.756 420.053 185.514 419.1 184.996C418.324 184.505 417.739 183.764 417.441 182.896C417.089 181.86 416.921 180.77 416.944 179.676V172.795C416.92 171.71 417.088 170.629 417.441 169.603C417.746 168.757 418.332 168.041 419.1 167.573C420.077 167.108 421.146 166.866 422.229 166.866C423.311 166.866 424.38 167.108 425.358 167.573C426.122 168.045 426.706 168.76 427.017 169.603C427.378 170.628 427.551 171.709 427.528 172.795V179.697C427.548 180.783 427.375 181.864 427.017 182.889C426.711 183.753 426.127 184.491 425.358 184.989C424.399 185.521 423.308 185.766 422.215 185.696ZM422.215 183.218C422.657 183.257 423.097 183.127 423.447 182.854C423.729 182.587 423.918 182.236 423.986 181.853C424.08 181.392 424.125 180.923 424.119 180.453V171.983C424.126 171.513 424.081 171.043 423.986 170.583C423.917 170.211 423.727 169.871 423.447 169.617C423.081 169.388 422.659 169.267 422.229 169.267C421.798 169.267 421.376 169.388 421.011 169.617C420.726 169.869 420.534 170.209 420.465 170.583C420.366 171.043 420.319 171.513 420.325 171.983V180.453C420.32 180.923 420.362 181.392 420.451 181.853C420.512 182.238 420.702 182.591 420.99 182.854C421.338 183.124 421.775 183.254 422.215 183.218Z" fill="#263238"/>
<path d="M430 185.444V167.048H432.338L436.818 177.548V167.048H439.618V185.444H437.392L432.898 174.454V185.444H430Z" fill="#263238"/>
<path d="M441.445 185.444L445.127 167.048H448.711L452.393 185.444H449.278L448.578 181.195H445.351L444.602 185.444H441.445ZM445.701 179.06H448.2L446.947 171.36L445.701 179.06Z" fill="#263238"/>
<path d="M454.141 185.444V167.048H458.544C459.609 167.024 460.671 167.175 461.687 167.496C462.493 167.754 463.184 168.287 463.64 169.001C464.14 169.887 464.383 170.896 464.34 171.913C464.346 172.583 464.278 173.252 464.137 173.908C464.013 174.456 463.775 174.971 463.437 175.42C463.079 175.855 462.613 176.188 462.086 176.386L464.599 185.444H461.239L459.013 177.044H457.473V185.444H454.141ZM457.501 174.909H458.544C459.077 174.931 459.608 174.833 460.098 174.622C460.48 174.437 460.778 174.115 460.931 173.719C461.108 173.204 461.191 172.661 461.176 172.116C461.231 171.379 461.052 170.644 460.665 170.016C460.419 169.755 460.116 169.555 459.779 169.434C459.442 169.312 459.081 169.272 458.726 169.316H457.501V174.909Z" fill="#263238"/>
<path d="M469.22 185.444V178.444L465.496 167.062H468.625L470.9 174.342L473 167.048H476.066L472.391 178.43V185.43L469.22 185.444Z" fill="#263238"/>
<path d="M472.417 191.142H370.301V193.487H472.417V191.142Z" fill="#263238" stroke="#263238" stroke-width="0.7" stroke-linecap="round" stroke-linejoin="round"/>
<path d="M472.417 159.67H370.301V162.015H472.417V159.67Z" fill="#263238" stroke="#263238" stroke-width="0.7" stroke-linecap="round" stroke-linejoin="round"/>
<path d="M351.542 105.861C351.54 105.088 351.232 104.347 350.684 103.802C350.137 103.256 349.396 102.949 348.623 102.949H131.203C130.808 102.93 130.413 102.991 130.043 103.129C129.672 103.266 129.333 103.478 129.047 103.751C128.761 104.023 128.533 104.351 128.377 104.715C128.221 105.078 128.141 105.469 128.141 105.865C128.141 106.26 128.221 106.651 128.377 107.015C128.533 107.378 128.761 107.706 129.047 107.979C129.333 108.251 129.672 108.463 130.043 108.601C130.413 108.738 130.808 108.799 131.203 108.78H345.403L329.737 311.08H199.782L192.432 303.303L182.632 311.08H93.1088C92.7139 311.061 92.3192 311.122 91.9486 311.26C91.578 311.397 91.2393 311.609 90.953 311.882C90.6667 312.154 90.4387 312.482 90.2829 312.846C90.1272 313.209 90.0469 313.6 90.0469 313.996C90.0469 314.391 90.1272 314.782 90.2829 315.146C90.4387 315.509 90.6667 315.837 90.953 316.11C91.2393 316.382 91.578 316.594 91.9486 316.732C92.3192 316.869 92.7139 316.93 93.1088 316.911H331.599C331.788 316.967 331.983 317.002 332.18 317.016C332.562 317.046 332.946 317 333.31 316.88C333.674 316.761 334.012 316.571 334.302 316.322C334.593 316.072 334.832 315.767 335.004 315.425C335.177 315.083 335.28 314.71 335.309 314.328L351.409 106.617C351.485 106.372 351.53 106.118 351.542 105.861Z" fill="#263238" stroke="#263238" stroke-width="0.7" stroke-linecap="round" stroke-linejoin="round"/>
<path d="M193.11 306.278C194.265 306.74 196.519 310.653 197.863 313.138H332.69L321.847 287.308C321.847 287.308 311.466 282.604 284.362 273.686C257.258 264.768 240.108 261.681 221.922 265.454C203.736 269.227 196.54 271.6 196.54 271.6C196.54 271.6 190.366 266.455 171.494 266.112C152.622 265.769 96.5449 287.28 96.5449 287.28L92.5898 313.11H187.3C189.043 310.24 191.941 305.809 193.11 306.278Z" fill="white" stroke="#263238" stroke-width="0.7" stroke-linecap="round" stroke-linejoin="round"/>
<path d="M217.065 82.754L195.008 282.8C195.008 282.8 219.074 272.776 234.614 272.3C247.354 271.887 285.714 280.917 299.119 284.2C302.305 284.979 305.539 285.55 308.8 285.908L321.848 287.364L337.388 89.327C337.388 89.327 311.824 83.314 293.288 77.294C274.752 71.274 238.121 66.71 217.065 82.754Z" fill="white" stroke="#263238" stroke-width="0.7" stroke-linecap="round" stroke-linejoin="round"/>
<path d="M305.328 97.475L307.036 84.875L309.682 85.778C310.447 86.0193 311.169 86.3834 311.817 86.856C312.333 87.237 312.727 87.7599 312.951 88.361C313.17 89.0385 313.223 89.7588 313.105 90.461C313.05 90.8971 312.934 91.3235 312.762 91.728C312.624 92.0613 312.396 92.3497 312.104 92.561C311.803 92.7635 311.444 92.8619 311.082 92.841L312.097 99.778L310.326 99.176L309.395 92.687L307.995 92.197L307.197 98.098L305.328 97.475ZM308.128 90.944L308.828 91.182C309.241 91.3439 309.68 91.4293 310.123 91.434C310.278 91.433 310.431 91.3973 310.57 91.3295C310.709 91.2616 310.832 91.1634 310.928 91.042C311.155 90.6864 311.29 90.2798 311.32 89.859C311.444 89.2737 311.373 88.6639 311.117 88.123C310.722 87.5914 310.152 87.2169 309.507 87.066L308.695 86.786L308.128 90.944Z" fill="black"/>
<path d="M314.098 96.229L314.266 94.969L317.899 96.208L317.724 97.468L314.098 96.229Z" fill="black"/>
<path d="M320.441 102.641L321.967 91.3641L319.734 90.6011L319.916 89.2991L326.146 91.3991L325.964 92.7011L323.801 91.9661L322.275 103.236L320.441 102.641Z" fill="black"/>
<path d="M217.066 82.7542L195.009 282.8C195.009 282.8 179.476 272.776 167.471 272.3C158.301 271.915 130.231 279.713 117.449 283.423C112.989 284.713 108.441 285.675 103.841 286.3L96.5469 287.315L123.553 92.3091C123.553 92.3091 135.747 88.2351 151.385 82.2151C167.023 76.1951 203.836 66.7102 217.066 82.7542Z" fill="white" stroke="#263238" stroke-width="0.7" stroke-linecap="round" stroke-linejoin="round"/>
<path d="M134.086 100.156L135.444 90.1391L137.726 89.4391C138.319 89.2389 138.941 89.1395 139.567 89.1451C139.762 89.139 139.955 89.1843 140.127 89.2764C140.299 89.3686 140.444 89.5043 140.547 89.6701C140.746 90.1084 140.8 90.5989 140.701 91.0701C140.65 91.4489 140.554 91.8203 140.414 92.1761C140.281 92.5179 140.092 92.835 139.854 93.1141C139.608 93.3994 139.311 93.6367 138.979 93.8141L139.91 98.3571L138.384 98.8121L137.537 94.5561L136.305 94.9271L135.668 99.6241L134.086 100.156ZM136.438 93.9821L137.04 93.8001C137.43 93.6909 137.804 93.5309 138.153 93.3241C138.442 93.1542 138.683 92.9133 138.853 92.6241C139.031 92.2963 139.145 91.9376 139.189 91.5671C139.266 90.9791 139.189 90.5941 138.993 90.4051C138.797 90.2161 138.293 90.2371 137.593 90.4471L136.893 90.6571L136.438 93.9821Z" fill="black"/>
<path d="M141.59 94.8081L141.73 93.8071L144.852 92.8691L144.698 93.8701L141.59 94.8081Z" fill="black"/>
<path d="M147.095 96.2571L148.313 87.2761L146.395 87.8571L146.535 86.8141L151.897 85.2041L151.757 86.2471L149.895 86.8071L148.677 95.7811L147.095 96.2571Z" fill="black"/>
<path d="M337.388 89.271L347.139 109.018L332.691 313.138L321.848 287.308L337.388 89.271Z" fill="white" stroke="#263238" stroke-width="0.7" stroke-linecap="round" stroke-linejoin="round"/>
<path d="M187.301 313.138C187.301 313.138 180.637 308.574 173.959 306.908C167.281 305.242 148.234 307.573 129.859 309.246" stroke="#263238" stroke-width="0.7" stroke-linecap="round" stroke-linejoin="round"/>
<path d="M187.651 308.574C187.651 308.574 180.651 302.897 171.621 302.232" stroke="#263238" stroke-width="0.7" stroke-linecap="round" stroke-linejoin="round"/>
<path d="M190.662 305.235C190.662 305.235 179.637 296.219 165.938 296.219C155.536 296.219 142.887 298.557 142.887 298.557" stroke="#263238" stroke-width="0.7" stroke-linecap="round" stroke-linejoin="round"/>
<path d="M191.662 297.22C191.662 297.22 182.975 290.871 175.289 290.22C167.603 289.569 157.922 291.2 157.922 291.2" stroke="#263238" stroke-width="0.7" stroke-linecap="round" stroke-linejoin="round"/>
<path d="M192.3 289.205C192.3 289.205 185.958 283.521 177.271 282.205C171.843 281.411 166.327 281.411 160.898 282.205" stroke="#263238" stroke-width="0.7" stroke-linecap="round" stroke-linejoin="round"/>
<path d="M195.664 291.543C195.664 291.543 206.36 283.843 224.364 285.859" stroke="#263238" stroke-width="0.7" stroke-linecap="round" stroke-linejoin="round"/>
<path d="M195 298.9C195 298.9 200.348 294.896 214.04 294.896" stroke="#263238" stroke-width="0.7" stroke-linecap="round" stroke-linejoin="round"/>
<path d="M196 305.9C196 305.9 207.025 301.553 217.049 302.554C227.073 303.555 228.403 304.227 240.765 305.564" stroke="#263238" stroke-width="0.7" stroke-linecap="round" stroke-linejoin="round"/>
<path d="M202.016 310.583C207.473 308.647 213.296 307.96 219.054 308.574" stroke="#263238" stroke-width="0.7" stroke-linecap="round" stroke-linejoin="round"/>
<path d="M220.391 295.218C220.391 295.218 231.08 295.883 236.421 297.885" stroke="#263238" stroke-width="0.7" stroke-linecap="round" stroke-linejoin="round"/>
<path d="M156.248 282.856L149.57 284.522" stroke="#263238" stroke-width="0.7" stroke-linecap="round" stroke-linejoin="round"/>
<path d="M138.883 299.894L133.871 301.224" stroke="#263238" stroke-width="0.7" stroke-linecap="round" stroke-linejoin="round"/>
<path d="M228.406 286.86L233.754 287.868" stroke="#263238" stroke-width="0.7" stroke-linecap="round" stroke-linejoin="round"/>
<path d="M306.574 307.573C306.574 307.573 320.938 308.574 326.279 308.574" stroke="#263238" stroke-width="0.7" stroke-linecap="round" stroke-linejoin="round"/>
<path d="M326.279 306.236L320.602 305.907" stroke="#263238" stroke-width="0.7" stroke-linecap="round" stroke-linejoin="round"/>
<path d="M306.238 299.222C306.238 299.222 317.599 299.922 323.276 300.559" stroke="#263238" stroke-width="0.7" stroke-linecap="round" stroke-linejoin="round"/>
<path d="M98.1289 293.881C104.916 293.145 111.623 291.803 118.17 289.87" stroke="#263238" stroke-width="0.7" stroke-linecap="round" stroke-linejoin="round"/>
<path d="M105.809 296.884C105.809 296.884 113.831 296.219 118.507 294.546" stroke="#263238" stroke-width="0.7" stroke-linecap="round" stroke-linejoin="round"/>
<path d="M319.266 293.209C319.266 293.209 309.914 294.546 296.551 291.543C288.944 289.796 281.25 288.457 273.5 287.532" stroke="#263238" stroke-width="0.7" stroke-linecap="round" stroke-linejoin="round"/>
<path d="M290.871 308.245L299.887 308.574" stroke="#263238" stroke-width="0.7" stroke-linecap="round" stroke-linejoin="round"/>
<path d="M341.98 101.129L338.305 148.568" stroke="#263238" stroke-width="0.7" stroke-linecap="round" stroke-linejoin="round"/>
<path d="M343.989 113.491L342.316 134.204" stroke="#263238" stroke-width="0.7" stroke-linecap="round" stroke-linejoin="round"/>
<path d="M337.975 191.324L334.629 235.088" stroke="#263238" stroke-width="0.7" stroke-linecap="round" stroke-linejoin="round"/>
<path d="M332.964 247.779L329.625 291.543" stroke="#263238" stroke-width="0.7" stroke-linecap="round" stroke-linejoin="round"/>
<path d="M335.464 186.312L333.301 214.711" stroke="#263238" stroke-width="0.7" stroke-linecap="round" stroke-linejoin="round"/>
<path d="M332.788 219.716L330.625 248.115" stroke="#263238" stroke-width="0.7" stroke-linecap="round" stroke-linejoin="round"/>
<path d="M222.742 105.749C222.742 105.749 236.903 95.8299 262.404 100.079" stroke="#B2B2B2" stroke-width="0.7" stroke-linecap="round" stroke-linejoin="round"/>
<path d="M221.992 112.07C221.992 112.07 236.195 102.116 261.696 106.274" stroke="#B2B2B2" stroke-width="0.7" stroke-linecap="round" stroke-linejoin="round"/>
<path d="M221.25 118.391C221.25 118.391 235.488 108.402 260.989 112.462" stroke="#B2B2B2" stroke-width="0.7" stroke-linecap="round" stroke-linejoin="round"/>
<path d="M220.508 124.705C220.508 124.705 234.781 114.681 260.275 118.65" stroke="#B2B2B2" stroke-width="0.7" stroke-linecap="round" stroke-linejoin="round"/>
<path d="M219.762 131.026C219.762 131.026 234.077 120.967 259.571 124.845" stroke="#B2B2B2" stroke-width="0.7" stroke-linecap="round" stroke-linejoin="round"/>
<path d="M219.02 137.347C219.02 137.347 233.363 127.253 258.864 131.047" stroke="#B2B2B2" stroke-width="0.7" stroke-linecap="round" stroke-linejoin="round"/>
<path d="M218.27 143.668C218.27 143.668 232.655 133.532 258.17 137.221" stroke="#B2B2B2" stroke-width="0.7" stroke-linecap="round" stroke-linejoin="round"/>
<path d="M217.5 149.989C217.5 149.989 231.92 139.818 257.4 143.409" stroke="#B2B2B2" stroke-width="0.7" stroke-linecap="round" stroke-linejoin="round"/>
<path d="M216.797 156.31C216.797 156.31 231.252 146.104 256.746 149.604" stroke="#B2B2B2" stroke-width="0.7" stroke-linecap="round" stroke-linejoin="round"/>
<path d="M216.035 162.631C216.035 162.631 230.532 152.383 256.026 155.792" stroke="#B2B2B2" stroke-width="0.7" stroke-linecap="round" stroke-linejoin="round"/>
<path d="M215.293 168.952C215.293 168.952 229.818 158.669 255.319 161.952" stroke="#B2B2B2" stroke-width="0.7" stroke-linecap="round" stroke-linejoin="round"/>
<path d="M214.551 175.266C214.551 175.266 229.111 164.955 254.612 168.168" stroke="#B2B2B2" stroke-width="0.7" stroke-linecap="round" stroke-linejoin="round"/>
<path d="M213.805 181.587C213.805 181.587 228.407 171.234 253.908 174.363" stroke="#B2B2B2" stroke-width="0.7" stroke-linecap="round" stroke-linejoin="round"/>
<path d="M213.062 187.908C213.062 187.908 227.699 177.52 253.201 180.551" stroke="#B2B2B2" stroke-width="0.7" stroke-linecap="round" stroke-linejoin="round"/>
<path d="M212.312 194.229C212.312 194.229 227.013 183.806 252.486 186.739" stroke="#B2B2B2" stroke-width="0.7" stroke-linecap="round" stroke-linejoin="round"/>
<path d="M211.57 200.55C211.57 200.55 226.27 190.092 251.778 192.927" stroke="#B2B2B2" stroke-width="0.7" stroke-linecap="round" stroke-linejoin="round"/>
<path d="M210.828 206.871C210.828 206.871 225.57 196.371 251.071 199.122" stroke="#B2B2B2" stroke-width="0.7" stroke-linecap="round" stroke-linejoin="round"/>
<path d="M210.078 213.192C210.078 213.192 224.862 202.657 250.398 205.31" stroke="#B2B2B2" stroke-width="0.7" stroke-linecap="round" stroke-linejoin="round"/>
<path d="M209.336 219.513C209.336 219.513 224.155 208.943 249.656 211.498" stroke="#B2B2B2" stroke-width="0.7" stroke-linecap="round" stroke-linejoin="round"/>
<path d="M208.594 225.827C208.594 225.827 223.448 215.222 248.942 217.7" stroke="#B2B2B2" stroke-width="0.7" stroke-linecap="round" stroke-linejoin="round"/>
<path d="M207.848 232.148C207.848 232.148 222.744 221.508 248.238 223.881" stroke="#B2B2B2" stroke-width="0.7" stroke-linecap="round" stroke-linejoin="round"/>
<path d="M207.105 238.469C207.105 238.469 222.029 227.794 247.53 230.069" stroke="#B2B2B2" stroke-width="0.7" stroke-linecap="round" stroke-linejoin="round"/>
<path d="M206.355 244.79C206.355 244.79 221.321 234.073 246.822 236.257" stroke="#B2B2B2" stroke-width="0.7" stroke-linecap="round" stroke-linejoin="round"/>
<path d="M205.598 251.111C205.598 251.111 220.599 240.359 246.1 242.452" stroke="#B2B2B2" stroke-width="0.7" stroke-linecap="round" stroke-linejoin="round"/>
<path d="M204.898 257.432C204.898 257.432 219.934 246.645 245.435 248.64" stroke="#B2B2B2" stroke-width="0.7" stroke-linecap="round" stroke-linejoin="round"/>
<path d="M204.121 263.753C204.121 263.753 219.199 252.924 244.721 254.828" stroke="#B2B2B2" stroke-width="0.7" stroke-linecap="round" stroke-linejoin="round"/>
<path d="M203.379 270.074C203.379 270.074 218.492 259.21 243.979 261.016" stroke="#B2B2B2" stroke-width="0.7" stroke-linecap="round" stroke-linejoin="round"/>
<path d="M274.199 101.024C274.199 101.024 294.03 98.2241 321.89 112.833" stroke="#B2B2B2" stroke-width="0.7" stroke-linecap="round" stroke-linejoin="round"/>
<path d="M273.5 107.275C273.5 107.275 293.639 104.601 321.282 119.042" stroke="#B2B2B2" stroke-width="0.7" stroke-linecap="round" stroke-linejoin="round"/>
<path d="M272.797 113.519C272.797 113.519 293.244 111.013 320.67 125.251" stroke="#B2B2B2" stroke-width="0.7" stroke-linecap="round" stroke-linejoin="round"/>
<path d="M272.141 119.77C272.141 119.77 292.896 117.425 320.098 131.467" stroke="#B2B2B2" stroke-width="0.7" stroke-linecap="round" stroke-linejoin="round"/>
<path d="M271.449 126C271.449 126 292.519 123.823 319.504 137.662" stroke="#B2B2B2" stroke-width="0.7" stroke-linecap="round" stroke-linejoin="round"/>
<path d="M270.754 132.3C270.754 132.3 292.132 130.284 318.9 143.92" stroke="#B2B2B2" stroke-width="0.7" stroke-linecap="round" stroke-linejoin="round"/>
<path d="M270.07 138.509C270.07 138.509 291.77 136.661 318.307 150.101" stroke="#B2B2B2" stroke-width="0.7" stroke-linecap="round" stroke-linejoin="round"/>
<path d="M269.375 144.76C269.375 144.76 291.369 143.066 317.675 156.31" stroke="#B2B2B2" stroke-width="0.7" stroke-linecap="round" stroke-linejoin="round"/>
<path d="M268.691 151.004C268.691 151.004 290.993 149.478 317.103 162.519" stroke="#B2B2B2" stroke-width="0.7" stroke-linecap="round" stroke-linejoin="round"/>
<path d="M267.996 157.255C267.996 157.255 290.606 155.855 316.506 168.728" stroke="#B2B2B2" stroke-width="0.7" stroke-linecap="round" stroke-linejoin="round"/>
<path d="M267.305 163.499C267.305 163.499 290.23 162.302 315.906 174.944" stroke="#B2B2B2" stroke-width="0.7" stroke-linecap="round" stroke-linejoin="round"/>
<path d="M266.617 169.75C266.617 169.75 289.843 168.714 315.309 181.153" stroke="#B2B2B2" stroke-width="0.7" stroke-linecap="round" stroke-linejoin="round"/>
<path d="M265.926 175.994C265.926 175.994 289.467 175.126 314.709 187.362" stroke="#B2B2B2" stroke-width="0.7" stroke-linecap="round" stroke-linejoin="round"/>
<path d="M265.238 182.245C265.238 182.245 289.08 181.545 314.105 193.578" stroke="#B2B2B2" stroke-width="0.7" stroke-linecap="round" stroke-linejoin="round"/>
<path d="M264.547 188.489C264.547 188.489 288.704 187.943 313.547 199.787" stroke="#B2B2B2" stroke-width="0.7" stroke-linecap="round" stroke-linejoin="round"/>
<path d="M263.852 194.74C263.852 194.74 288.317 194.355 312.908 205.996" stroke="#B2B2B2" stroke-width="0.7" stroke-linecap="round" stroke-linejoin="round"/>
<path d="M263.168 200.984C263.168 200.984 287.941 200.767 312.308 212.184" stroke="#B2B2B2" stroke-width="0.7" stroke-linecap="round" stroke-linejoin="round"/>
<path d="M262.473 207.235C262.473 207.235 287.554 207.179 311.711 218.435" stroke="#B2B2B2" stroke-width="0.7" stroke-linecap="round" stroke-linejoin="round"/>
<path d="M261.789 213.5C261.789 213.5 287.178 213.612 311.111 224.651" stroke="#B2B2B2" stroke-width="0.7" stroke-linecap="round" stroke-linejoin="round"/>
<path d="M261.094 219.73C261.094 219.73 286.791 220.003 310.514 230.839" stroke="#B2B2B2" stroke-width="0.7" stroke-linecap="round" stroke-linejoin="round"/>
<path d="M260.41 225.974C260.41 225.974 286.415 226.408 309.914 237.055" stroke="#B2B2B2" stroke-width="0.7" stroke-linecap="round" stroke-linejoin="round"/>
<path d="M259.715 232.225C259.715 232.225 286.028 232.82 309.31 243.264" stroke="#B2B2B2" stroke-width="0.7" stroke-linecap="round" stroke-linejoin="round"/>
<path d="M259.023 238.469C259.023 238.469 285.623 239.232 308.723 249.473" stroke="#B2B2B2" stroke-width="0.7" stroke-linecap="round" stroke-linejoin="round"/>
<path d="M258.336 244.72C258.336 244.72 285.265 245.644 308.113 255.689" stroke="#B2B2B2" stroke-width="0.7" stroke-linecap="round" stroke-linejoin="round"/>
<path d="M257.645 250.964C257.645 250.964 284.889 252.056 307.52 261.898" stroke="#B2B2B2" stroke-width="0.7" stroke-linecap="round" stroke-linejoin="round"/>
<path d="M256.957 257.215C256.957 257.215 284.502 258.468 306.916 268.107" stroke="#B2B2B2" stroke-width="0.7" stroke-linecap="round" stroke-linejoin="round"/>
<path d="M256.266 263.459C256.266 263.459 284.126 264.859 306.316 274.323" stroke="#B2B2B2" stroke-width="0.7" stroke-linecap="round" stroke-linejoin="round"/>
<path d="M131.203 108.78C131.203 108.78 138.203 100.555 160.883 100.079" stroke="#B2B2B2" stroke-width="0.7" stroke-linecap="round" stroke-linejoin="round"/>
<path d="M130.348 115.052C130.348 115.052 137.348 106.946 160.063 106.33" stroke="#B2B2B2" stroke-width="0.7" stroke-linecap="round" stroke-linejoin="round"/>
<path d="M129.488 121.331C129.488 121.331 136.488 113.337 159.245 112.574" stroke="#B2B2B2" stroke-width="0.7" stroke-linecap="round" stroke-linejoin="round"/>
<path d="M128.633 127.61C128.633 127.61 135.633 119.735 158.432 118.825" stroke="#B2B2B2" stroke-width="0.7" stroke-linecap="round" stroke-linejoin="round"/>
<path d="M127.781 133.882C127.781 133.882 134.781 126.126 157.615 125.069" stroke="#B2B2B2" stroke-width="0.7" stroke-linecap="round" stroke-linejoin="round"/>
<path d="M126.918 140.161C126.918 140.161 133.918 132.517 156.794 131.32" stroke="#B2B2B2" stroke-width="0.7" stroke-linecap="round" stroke-linejoin="round"/>
<path d="M126.066 146.433C126.066 146.433 133.066 138.908 155.977 137.564" stroke="#B2B2B2" stroke-width="0.7" stroke-linecap="round" stroke-linejoin="round"/>
<path d="M125.211 152.712C125.211 152.712 132.211 145.306 155.164 143.815" stroke="#B2B2B2" stroke-width="0.7" stroke-linecap="round" stroke-linejoin="round"/>
<path d="M124.352 158.991C124.352 158.991 131.394 151.697 154.347 150.059" stroke="#B2B2B2" stroke-width="0.7" stroke-linecap="round" stroke-linejoin="round"/>
<path d="M123.496 165.263C123.496 165.263 130.538 158.088 153.526 156.31" stroke="#B2B2B2" stroke-width="0.7" stroke-linecap="round" stroke-linejoin="round"/>
<path d="M122.641 171.542C122.641 171.507 129.683 164.479 152.706 162.554" stroke="#B2B2B2" stroke-width="0.7" stroke-linecap="round" stroke-linejoin="round"/>
<path d="M121.789 177.8C121.789 177.765 128.831 170.863 151.889 168.791" stroke="#B2B2B2" stroke-width="0.7" stroke-linecap="round" stroke-linejoin="round"/>
<path d="M120.898 184.1C120.933 184.058 127.947 177.275 151.047 175.056" stroke="#B2B2B2" stroke-width="0.7" stroke-linecap="round" stroke-linejoin="round"/>
<path d="M120.074 190.4C120.109 190.351 127.123 183.687 150.258 181.3" stroke="#B2B2B2" stroke-width="0.7" stroke-linecap="round" stroke-linejoin="round"/>
<path d="M119.219 196.644C119.254 196.595 126.268 190.05 149.438 187.544" stroke="#B2B2B2" stroke-width="0.7" stroke-linecap="round" stroke-linejoin="round"/>
<path d="M118.359 202.923C118.401 202.867 125.415 196.448 148.627 193.823" stroke="#B2B2B2" stroke-width="0.7" stroke-linecap="round" stroke-linejoin="round"/>
<path d="M117.504 209.195C117.546 209.139 124.56 202.839 147.807 200.039" stroke="#B2B2B2" stroke-width="0.7" stroke-linecap="round" stroke-linejoin="round"/>
<path d="M116.648 215.474C116.69 215.411 123.704 209.23 146.986 206.29" stroke="#B2B2B2" stroke-width="0.7" stroke-linecap="round" stroke-linejoin="round"/>
<path d="M115.789 221.753C115.838 221.69 122.852 215.621 146.169 212.534" stroke="#B2B2B2" stroke-width="0.7" stroke-linecap="round" stroke-linejoin="round"/>
<path d="M114.934 228.025C114.983 227.962 121.997 222.019 145.356 218.785" stroke="#B2B2B2" stroke-width="0.7" stroke-linecap="round" stroke-linejoin="round"/>
<path d="M114.082 234.304C114.131 234.234 121.145 228.41 144.539 225.029" stroke="#B2B2B2" stroke-width="0.7" stroke-linecap="round" stroke-linejoin="round"/>
<path d="M113.199 240.576C113.262 240.506 120.269 234.801 143.698 231.28" stroke="#B2B2B2" stroke-width="0.7" stroke-linecap="round" stroke-linejoin="round"/>
<path d="M112.367 246.855C112.43 246.778 119.437 241.192 142.901 237.524" stroke="#B2B2B2" stroke-width="0.7" stroke-linecap="round" stroke-linejoin="round"/>
<path d="M111.512 253.134C111.575 253.05 118.582 247.59 142.088 243.775" stroke="#B2B2B2" stroke-width="0.7" stroke-linecap="round" stroke-linejoin="round"/>
<path d="M110.652 259.406C110.722 259.322 117.736 253.981 141.27 250.019" stroke="#B2B2B2" stroke-width="0.7" stroke-linecap="round" stroke-linejoin="round"/>
<path d="M109.797 265.685C109.867 265.594 116.881 260.372 140.45 256.27" stroke="#B2B2B2" stroke-width="0.7" stroke-linecap="round" stroke-linejoin="round"/>
<path d="M108.941 271.957C109.011 271.866 116.025 266.763 139.629 262.514" stroke="#B2B2B2" stroke-width="0.7" stroke-linecap="round" stroke-linejoin="round"/>
<path d="M169.855 98.1959C169.855 98.1959 186.914 92.0569 202.909 102.914" stroke="#B2B2B2" stroke-width="0.7" stroke-linecap="round" stroke-linejoin="round"/>
<path d="M169.074 104.426C169.074 104.426 186.077 98.3219 202.275 109.074" stroke="#B2B2B2" stroke-width="0.7" stroke-linecap="round" stroke-linejoin="round"/>
<path d="M168.289 110.649C168.289 110.649 185.236 104.587 201.637 115.227" stroke="#B2B2B2" stroke-width="0.7" stroke-linecap="round" stroke-linejoin="round"/>
<path d="M167.512 116.9C167.512 116.9 184.403 110.873 201 121.408" stroke="#B2B2B2" stroke-width="0.7" stroke-linecap="round" stroke-linejoin="round"/>
<path d="M166.727 123.109C172.326 121.457 178.209 120.997 183.997 121.76C189.784 122.524 195.347 124.493 200.327 127.54" stroke="#B2B2B2" stroke-width="0.7" stroke-linecap="round" stroke-linejoin="round"/>
<path d="M165.949 129.339C171.574 127.689 177.481 127.225 183.294 127.975C189.108 128.726 194.703 130.675 199.724 133.7" stroke="#B2B2B2" stroke-width="0.7" stroke-linecap="round" stroke-linejoin="round"/>
<path d="M165.168 135.569C170.816 133.927 176.741 133.46 182.576 134.197C188.412 134.934 194.034 136.859 199.097 139.853" stroke="#B2B2B2" stroke-width="0.7" stroke-linecap="round" stroke-linejoin="round"/>
<path d="M164.391 141.799C164.391 141.799 181.051 135.912 198.46 145.999" stroke="#B2B2B2" stroke-width="0.7" stroke-linecap="round" stroke-linejoin="round"/>
<path d="M163.598 148.029C163.598 148.029 180.202 142.177 197.814 152.166" stroke="#B2B2B2" stroke-width="0.7" stroke-linecap="round" stroke-linejoin="round"/>
<path d="M162.828 154.259C162.828 154.259 179.376 148.442 197.184 158.326" stroke="#B2B2B2" stroke-width="0.7" stroke-linecap="round" stroke-linejoin="round"/>
<path d="M162.043 160.489C162.043 160.489 178.535 154.714 196.546 164.479" stroke="#B2B2B2" stroke-width="0.7" stroke-linecap="round" stroke-linejoin="round"/>
<path d="M161.262 166.712C161.262 166.712 177.698 160.979 195.919 170.639" stroke="#B2B2B2" stroke-width="0.7" stroke-linecap="round" stroke-linejoin="round"/>
<path d="M160.484 172.942C160.484 172.942 176.864 167.244 195.281 176.792" stroke="#B2B2B2" stroke-width="0.7" stroke-linecap="round" stroke-linejoin="round"/>
<path d="M159.699 179.2C159.699 179.2 176.023 173.537 194.643 182.98" stroke="#B2B2B2" stroke-width="0.7" stroke-linecap="round" stroke-linejoin="round"/>
<path d="M158.922 185.402C158.922 185.402 175.183 179.802 194.006 189.105" stroke="#B2B2B2" stroke-width="0.7" stroke-linecap="round" stroke-linejoin="round"/>
<path d="M158.141 191.632C158.141 191.632 174.353 186.032 193.372 195.265" stroke="#B2B2B2" stroke-width="0.7" stroke-linecap="round" stroke-linejoin="round"/>
<path d="M157.363 197.862C157.363 197.862 173.512 192.304 192.741 201.418" stroke="#B2B2B2" stroke-width="0.7" stroke-linecap="round" stroke-linejoin="round"/>
<path d="M156.598 204.092C156.598 204.092 172.698 198.569 192.123 207.592" stroke="#B2B2B2" stroke-width="0.7" stroke-linecap="round" stroke-linejoin="round"/>
<path d="M155.801 210.322C155.801 210.322 171.838 204.834 191.466 213.738" stroke="#B2B2B2" stroke-width="0.7" stroke-linecap="round" stroke-linejoin="round"/>
<path d="M155.016 216.552C155.016 216.552 170.997 211.099 190.828 219.891" stroke="#B2B2B2" stroke-width="0.7" stroke-linecap="round" stroke-linejoin="round"/>
<path d="M154.234 222.782C154.234 222.782 170.159 217.364 190.193 226.051" stroke="#B2B2B2" stroke-width="0.7" stroke-linecap="round" stroke-linejoin="round"/>
<path d="M153.457 229.005C153.457 229.005 169.319 223.629 189.563 232.204" stroke="#B2B2B2" stroke-width="0.7" stroke-linecap="round" stroke-linejoin="round"/>
<path d="M152.672 235.235C152.672 235.235 168.485 229.901 188.925 238.364" stroke="#B2B2B2" stroke-width="0.7" stroke-linecap="round" stroke-linejoin="round"/>
<path d="M151.895 241.5C151.895 241.5 167.645 236.201 188.295 244.552" stroke="#B2B2B2" stroke-width="0.7" stroke-linecap="round" stroke-linejoin="round"/>
<path d="M151.109 247.695C151.109 247.695 166.803 242.431 187.649 250.677" stroke="#B2B2B2" stroke-width="0.7" stroke-linecap="round" stroke-linejoin="round"/>
<path d="M150.332 253.925C150.332 253.925 165.97 248.696 187.012 256.83" stroke="#B2B2B2" stroke-width="0.7" stroke-linecap="round" stroke-linejoin="round"/>
<path d="M149.551 260.155C149.551 260.155 165.133 254.961 186.385 262.99" stroke="#B2B2B2" stroke-width="0.7" stroke-linecap="round" stroke-linejoin="round"/>
<path d="M222.11 79.219L212.359 168.259L221.088 155.946L227.759 163.1L236.999 73.801C236.999 73.801 228.781 74.347 222.11 79.219Z" fill="#263238" stroke="#263238" stroke-width="0.7" stroke-linecap="round" stroke-linejoin="round"/>
<path d="M59.8672 318.99C59.8672 318.99 58.9712 319.326 59.7552 320.11C60.5392 320.894 63.6892 321.461 66.4962 321.237C68.9316 320.927 71.3128 320.284 73.5732 319.326C74.6932 318.878 73.9092 316.407 73.9092 316.407L59.8672 318.99Z" fill="#263238" stroke="#263238" stroke-width="0.7" stroke-linecap="round" stroke-linejoin="round"/>
<path d="M64.898 298.571C64.898 298.571 66.585 311.017 66.585 311.577C66.585 312.137 62.203 317.079 60.068 318.199C57.933 319.319 63.442 320.334 65.801 320.11C68.16 319.886 71.639 319.214 72.311 318.766C72.983 318.318 73.774 317.975 73.886 316.407C73.998 314.839 73.102 310.002 73.102 310.002L73.298 298.158L64.898 298.571Z" fill="white" stroke="#263238" stroke-width="0.7" stroke-linecap="round" stroke-linejoin="round"/>
<path d="M73.1543 310.17C70.9591 310.666 68.6882 310.728 66.4693 310.352C66.5533 311.052 66.6093 311.479 66.6093 311.577C66.2922 312.224 65.8713 312.815 65.3633 313.327C66.4763 313.124 68.7373 312.914 70.1793 314.09C71.2503 314.965 71.7123 316.519 71.5373 318.703C71.5307 318.825 71.5498 318.946 71.5933 319.06C71.8519 318.993 72.1012 318.895 72.3353 318.766C72.6254 318.589 72.9016 318.39 73.1613 318.171C73.2313 315.77 72.5733 313.971 71.1873 312.844C70.871 312.587 70.5256 312.369 70.1583 312.193C71.2586 312.144 72.3524 311.999 73.4273 311.759C73.3013 311.031 73.2033 310.443 73.1543 310.17Z" fill="#263238"/>
<path d="M69.3254 315.392C67.8827 314.524 66.1997 314.141 64.5234 314.3C63.9774 314.895 63.3754 315.511 62.7734 316.092C64.4744 315.805 66.9734 315.693 68.3734 316.722C68.8067 317.046 69.1552 317.469 69.3892 317.957C69.6232 318.445 69.7358 318.981 69.7174 319.522C69.7174 319.522 69.7174 319.522 69.7174 319.557C70.3054 319.438 70.8514 319.312 71.2924 319.186C71.2724 318.446 71.085 317.72 70.7443 317.063C70.4037 316.406 69.9186 315.835 69.3254 315.392Z" fill="#263238"/>
<path d="M103.786 318.227C103.68 318.299 103.589 318.392 103.52 318.499C103.451 318.607 103.405 318.728 103.384 318.854C103.363 318.981 103.368 319.11 103.398 319.234C103.429 319.359 103.484 319.476 103.562 319.578C104.122 320.362 106.145 320.362 107.265 320.362C108.385 320.362 114.23 320.474 114.23 320.474C114.23 320.474 122.763 320.362 124.03 320.026C125.297 319.69 125.374 319.018 124.926 318.675C124.511 318.465 124.042 318.387 123.582 318.451C121.53 318.697 119.459 318.735 117.401 318.563C114.93 318.227 107.517 318.339 106.397 318.227C105.527 318.163 104.655 318.163 103.786 318.227Z" fill="#263238" stroke="#263238" stroke-width="0.7" stroke-linecap="round" stroke-linejoin="round"/>
<path d="M99.8086 299.089C99.8086 299.089 103.561 310.366 103.673 310.926C103.84 312.085 103.915 313.255 103.897 314.426C103.897 315.994 102.882 317.681 104.681 318.801C106.48 319.921 111.422 319.144 113.893 319.368C116.435 319.537 118.987 319.537 121.53 319.368C124.897 319.256 126.136 317.457 125.345 317.121C124.554 316.785 124.225 317.681 120.515 315.546C116.805 313.411 110.295 310.268 110.071 309.596C109.847 308.924 108.615 299.04 108.615 299.04L99.8086 299.089Z" fill="white" stroke="#263238" stroke-width="0.7" stroke-linecap="round" stroke-linejoin="round"/>
<path d="M116.701 313.446C115.998 315.372 115.647 317.409 115.665 319.459C116.197 319.459 116.729 319.459 117.275 319.459C117.265 317.669 117.553 315.89 118.129 314.195L116.701 313.446Z" fill="#263238"/>
<path d="M108.811 319.41C109.095 316.344 110.29 313.434 112.241 311.052C111.681 310.737 111.198 310.45 110.841 310.212C108.747 312.837 107.485 316.028 107.215 319.375C107.712 319.41 108.251 319.417 108.811 319.41Z" fill="#263238"/>
<path d="M110.072 309.582C110.037 309.477 109.981 309.148 109.904 308.672C107.77 309.283 105.57 309.626 103.352 309.694C103.534 310.359 103.653 310.821 103.674 310.926L103.73 311.297C106.086 311.206 108.42 310.809 110.674 310.114C110.437 309.981 110.232 309.8 110.072 309.582Z" fill="#263238"/>
<path d="M90.9832 140.798C90.9832 140.798 91.5152 145.572 92.5092 147.623C93.5032 149.674 95.8902 151.34 95.3092 155.582C94.7282 159.824 91.5922 162.015 89.9332 162.351C89.0134 162.548 88.0735 162.634 87.1332 162.61L87.4622 167.321C90.1833 167.219 92.906 167.473 95.5612 168.077C99.0192 169.036 104.661 170.954 107.167 171.339C109.673 171.724 119.249 172.214 121.167 174.321C123.085 176.428 122.602 178.353 121.454 179.501C120.306 180.649 114.265 180.355 106.306 180.355H98.3542C98.3542 180.355 100.174 185.052 99.8872 188.412C99.6002 191.772 96.7232 197.715 96.7232 197.715C96.7232 197.715 97.0102 204.428 97.5842 209.615C98.1582 214.802 98.2842 218.148 98.2842 218.148C98.2842 218.148 101.448 239.533 105.186 253.729C108.924 267.925 108.546 289.114 109.505 292.852C110.464 296.59 111.01 300.3 111.01 300.3C111.01 300.3 101.805 302.12 98.5432 302.316C96.9476 302.431 95.3472 302.464 93.7482 302.414L91.8302 283.71C91.8302 283.71 88.0922 258.874 87.8962 258.51C87.7002 258.146 82.3382 239.904 82.3382 239.904L78.9782 272.3L75.8142 301.833L61.4012 300.041L61.6882 264.271C61.6882 264.271 60.9252 243.46 61.1142 234.829C61.3032 226.198 63.9912 218.526 66.3852 215.453C68.7792 212.38 74.7292 203.553 74.7292 203.553L73.6792 197.512L68.0792 186.487C68.0792 186.487 55.1852 195.755 52.9802 197.295C50.7752 198.835 48.0802 197.68 47.3802 194.033C46.6802 190.386 63.8232 175.266 66.5112 173.348C69.1992 171.43 78.4112 166.25 78.4112 166.25L78.0262 161.644C78.0262 161.644 74.7642 160.594 73.6162 158.004C72.4682 155.414 76.6822 152.152 76.7802 150.045C76.8782 147.938 75.2472 144.095 77.9282 143.136C80.6092 142.177 90.9832 140.798 90.9832 140.798Z" fill="white" stroke="#263238" stroke-width="0.7" stroke-linecap="round" stroke-linejoin="round"/>
<path d="M93.7461 302.442C95.3451 302.492 96.9455 302.459 98.5411 302.344C101.803 302.148 111.008 300.328 111.008 300.328C111.008 300.328 110.434 296.59 109.475 292.845C108.516 289.1 108.901 267.911 105.156 253.722C101.411 239.533 98.2541 218.141 98.2541 218.141C98.2541 218.141 98.1561 214.781 97.5541 209.608C97.3091 207.424 97.1201 204.967 96.9801 202.86L74.6431 203.056L74.7271 203.56C74.7271 203.56 68.7841 212.387 66.3831 215.46C63.9821 218.533 61.3011 226.205 61.1121 234.836C60.9231 243.467 61.6861 264.278 61.6861 264.278L61.3991 300.041L75.7841 301.861L78.9761 272.3L82.3361 239.883C82.3361 239.883 87.7051 258.083 87.8941 258.489C88.0831 258.895 91.8281 283.689 91.8281 283.689L93.7461 302.442Z" fill="#92E3A9" stroke="#263238" stroke-width="0.7" stroke-linecap="round" stroke-linejoin="round"/>
<path d="M89.4492 210.315L96.2952 210.217" stroke="#263238" stroke-width="0.7" stroke-linecap="round" stroke-linejoin="round"/>
<path d="M79.5352 210.462L87.7602 210.343" stroke="#263238" stroke-width="0.7" stroke-linecap="round" stroke-linejoin="round"/>
<path d="M92.543 210.336L94.174 224.721" stroke="#263238" stroke-width="0.7" stroke-linecap="round" stroke-linejoin="round"/>
<path d="M93.6719 212.212L97.4239 229.103" stroke="#263238" stroke-width="0.7" stroke-linecap="round" stroke-linejoin="round"/>
<path d="M78.4082 211.715L75.1602 223.972" stroke="#263238" stroke-width="0.7" stroke-linecap="round" stroke-linejoin="round"/>
<path d="M77.4772 226.793L77.2812 228.725" stroke="#263238" stroke-width="0.7" stroke-linecap="round" stroke-linejoin="round"/>
<path d="M78.7889 213.717L77.7109 224.476" stroke="#263238" stroke-width="0.7" stroke-linecap="round" stroke-linejoin="round"/>
<path d="M81.918 147.091C82.3282 146.689 82.8198 146.38 83.3595 146.185C83.8993 145.989 84.4747 145.911 85.047 145.957" stroke="#263238" stroke-width="0.7" stroke-miterlimit="10"/>
<path d="M89.043 144.431C89.5028 143.904 90.1459 143.571 90.842 143.5" stroke="#263238" stroke-width="0.7" stroke-miterlimit="10"/>
<path d="M95.818 147.238C95.818 147.912 95.6181 148.571 95.2435 149.132C94.8689 149.693 94.3365 150.13 93.7136 150.388C93.0907 150.646 92.4052 150.713 91.7439 150.582C91.0827 150.45 90.4752 150.125 89.9985 149.649C89.5217 149.172 89.197 148.564 89.0655 147.903C88.934 147.242 89.0015 146.556 89.2595 145.934C89.5175 145.311 89.9545 144.778 90.5151 144.404C91.0757 144.029 91.7348 143.829 92.409 143.829C93.3131 143.829 94.1802 144.188 94.8195 144.828C95.4588 145.467 95.818 146.334 95.818 147.238Z" stroke="#263238" stroke-width="0.7" stroke-linecap="round" stroke-linejoin="round"/>
<path d="M87.2227 155.134C87.8427 155.492 88.5331 155.711 89.2462 155.777C89.9592 155.842 90.6779 155.752 91.3527 155.512" stroke="#263238" stroke-width="0.7" stroke-linecap="round" stroke-linejoin="round"/>
<path d="M87.8938 150.094C87.8938 150.767 87.6943 151.424 87.3205 151.984C86.9467 152.543 86.4154 152.979 85.7937 153.237C85.1721 153.494 84.4881 153.562 83.8282 153.431C83.1682 153.299 82.562 152.975 82.0863 152.499C81.6105 152.024 81.2865 151.418 81.1552 150.758C81.0239 150.098 81.0913 149.414 81.3488 148.792C81.6063 148.17 82.0423 147.639 82.6018 147.265C83.1613 146.891 83.819 146.692 84.4918 146.692C85.3941 146.692 86.2594 147.05 86.8974 147.688C87.5354 148.326 87.8938 149.192 87.8938 150.094Z" stroke="#263238" stroke-width="0.7" stroke-linecap="round" stroke-linejoin="round"/>
<path d="M86.0672 149.898C86.1722 150.5 86.0112 151.032 85.6962 151.088C85.3812 151.144 85.0452 150.703 84.9332 150.108C84.8212 149.513 84.9892 148.974 85.3042 148.918C85.6192 148.862 85.9552 149.296 86.0672 149.898Z" fill="#263238"/>
<path d="M91.6552 147.903C91.7672 148.498 91.6062 149.03 91.2912 149.086C90.9762 149.142 90.6332 148.708 90.5282 148.106C90.4232 147.504 90.5842 146.979 90.8922 146.916C91.2002 146.853 91.5502 147.301 91.6552 147.903Z" fill="#263238"/>
<path d="M81.2812 151.298L76.1992 153.692" stroke="#263238" stroke-width="0.7" stroke-linecap="round" stroke-linejoin="round"/>
<path d="M87.8047 149.1C87.9225 148.925 88.0832 148.783 88.2715 148.688C88.4598 148.593 88.6694 148.548 88.8802 148.557C89.091 148.566 89.2959 148.629 89.4752 148.74C89.6546 148.851 89.8025 149.006 89.9047 149.191" stroke="#263238" stroke-width="0.7" stroke-linecap="round" stroke-linejoin="round"/>
<path d="M88.6992 148.225C88.9918 148.679 89.4319 149.017 89.9452 149.184C90.7152 149.38 92.9202 149.569 92.7452 150.626C92.6734 151.061 92.4961 151.471 92.2288 151.821C91.9615 152.172 91.6125 152.451 91.2122 152.635" stroke="#263238" stroke-width="0.7" stroke-linecap="round" stroke-linejoin="round"/>
<path d="M77.787 144.515C77.787 144.515 78.382 148.477 77.885 151.06C77.388 153.643 75.211 154.623 75.505 156.709C75.799 158.795 79.005 161.861 79.005 161.861C78.1585 162.88 77.0985 163.702 75.8998 164.266C74.7012 164.831 73.3931 165.126 72.068 165.13C67.378 165.2 63.5 163.443 63.5 155.617C63.5 147.791 64.592 138.964 70.241 136.192C75.89 133.42 86.495 134.505 88.875 135.401C91.255 136.297 93.929 139.363 93.033 140.847C92.137 142.331 81.749 145.012 77.787 144.515Z" fill="#263238" stroke="#263238" stroke-width="0.7" stroke-linecap="round" stroke-linejoin="round"/>
<path d="M77.73 154.938C77.73 154.938 74.853 152.446 73.705 153.692C72.557 154.938 73.992 157.143 75.042 158.389C75.2085 158.606 75.4245 158.781 75.6721 158.898C75.9197 159.016 76.1916 159.072 76.4654 159.063C76.7392 159.055 77.007 158.98 77.2464 158.847C77.4858 158.714 77.69 158.526 77.842 158.298" fill="white"/>
<path d="M77.73 154.938C77.73 154.938 74.853 152.446 73.705 153.692C72.557 154.938 73.992 157.143 75.042 158.389C75.2085 158.606 75.4245 158.781 75.6721 158.898C75.9197 159.016 76.1916 159.072 76.4654 159.063C76.7392 159.055 77.007 158.98 77.2464 158.847C77.4858 158.714 77.69 158.526 77.842 158.298" stroke="#263238" stroke-width="0.7" stroke-linecap="round" stroke-linejoin="round"/>
<path d="M87.1387 162.617L83.7227 162.155L87.3277 166.502L87.1387 162.617Z" fill="#263238" stroke="#263238" stroke-width="0.7" stroke-linecap="round" stroke-linejoin="round"/>
<path d="M118.906 179.291C117.55 179.131 116.252 178.651 115.119 177.891C113.453 176.687 112.809 172.991 111.332 170.31C109.855 167.629 102.232 154.567 102.232 154.567C101.489 154.532 100.767 154.311 100.132 153.923C99.1167 153.272 98.1017 152.439 96.5337 152.257C94.9657 152.075 94.1257 152.348 93.5727 152.166C93.0197 151.984 93.3907 150.409 94.6857 150.066C95.9807 149.723 97.9197 150.437 97.9197 150.437C98.0187 149.444 97.9237 148.44 97.6397 147.483C97.1777 146.279 95.6097 144.893 94.4967 144.249C93.3837 143.605 92.1867 143.598 92.6487 142.954C93.1107 142.31 93.7617 142.121 95.1477 142.303C96.5337 142.485 98.9347 144.984 98.9347 144.984C98.9347 144.984 101.035 146.65 101.518 146.65C102.001 146.65 103.926 146.559 104.85 148.05C105.774 149.541 106.6 152.67 106.509 153.503C106.455 154.024 106.455 154.55 106.509 155.071C106.509 155.071 116.932 167.216 119.109 169.337C121.286 171.458 122.805 176.337 122.434 177.562C122.225 178.265 121.903 178.929 121.482 179.529" fill="white"/>
<path d="M118.906 179.291C117.55 179.131 116.252 178.651 115.119 177.891C113.453 176.687 112.809 172.991 111.332 170.31C109.855 167.629 102.232 154.567 102.232 154.567C101.489 154.532 100.767 154.311 100.132 153.923C99.1167 153.272 98.1017 152.439 96.5337 152.257C94.9657 152.075 94.1257 152.348 93.5727 152.166C93.0197 151.984 93.3907 150.409 94.6857 150.066C95.9807 149.723 97.9197 150.437 97.9197 150.437C98.0187 149.444 97.9237 148.44 97.6397 147.483C97.1777 146.279 95.6097 144.893 94.4967 144.249C93.3837 143.605 92.1867 143.598 92.6487 142.954C93.1107 142.31 93.7617 142.121 95.1477 142.303C96.5337 142.485 98.9347 144.984 98.9347 144.984C98.9347 144.984 101.035 146.65 101.518 146.65C102.001 146.65 103.926 146.559 104.85 148.05C105.774 149.541 106.6 152.67 106.509 153.503C106.455 154.024 106.455 154.55 106.509 155.071C106.509 155.071 116.932 167.216 119.109 169.337C121.286 171.458 122.805 176.337 122.434 177.562C122.225 178.265 121.903 178.929 121.482 179.529" stroke="#263238" stroke-width="0.7" stroke-linecap="round" stroke-linejoin="round"/>
<path d="M101.088 145.6C100.983 145.376 100.821 145.183 100.619 145.04C99.2194 144.018 98.6594 145.999 98.7014 146.916C98.7636 147.643 98.9507 148.353 99.2544 149.016C99.3524 149.254 99.5204 149.527 99.7934 149.513C99.8603 149.509 99.9255 149.491 99.9846 149.459C100.044 149.428 100.096 149.384 100.136 149.331C100.654 148.75 100.213 147.854 100.507 147.161C100.675 146.755 101.095 146.461 101.151 146.013C101.166 145.872 101.144 145.73 101.088 145.6Z" fill="white" stroke="#263238" stroke-width="0.7" stroke-linecap="round" stroke-linejoin="round"/>
<path d="M102.936 145.698C102.83 145.474 102.669 145.281 102.467 145.138C101.067 144.123 100.507 146.097 100.549 147.014C100.611 147.74 100.798 148.451 101.102 149.114C101.2 149.345 101.368 149.625 101.641 149.611C101.708 149.604 101.773 149.584 101.832 149.551C101.891 149.519 101.943 149.475 101.984 149.422C102.502 148.848 102.061 147.952 102.355 147.259C102.523 146.853 102.943 146.559 102.999 146.104C103.012 145.965 102.99 145.826 102.936 145.698Z" fill="white" stroke="#263238" stroke-width="0.7" stroke-linecap="round" stroke-linejoin="round"/>
<path d="M104.638 146.468C104.545 146.266 104.4 146.092 104.218 145.964C102.979 145.04 102.447 146.832 102.482 147.658C102.536 148.323 102.705 148.975 102.979 149.583C103.07 149.793 103.224 150.045 103.469 150.031C103.53 150.026 103.59 150.008 103.644 149.979C103.698 149.95 103.746 149.911 103.784 149.863C104.253 149.345 103.847 148.533 104.113 147.903C104.267 147.539 104.645 147.252 104.701 146.86C104.715 146.726 104.693 146.591 104.638 146.468Z" fill="white" stroke="#263238" stroke-width="0.7" stroke-linecap="round" stroke-linejoin="round"/>
<path d="M101.922 151.354C102.017 152.171 102.266 152.962 102.657 153.685C103.134 154.17 103.776 154.458 104.456 154.49" stroke="#263238" stroke-width="0.7" stroke-linecap="round" stroke-linejoin="round"/>
<path d="M96.7204 197.715C96.7204 197.715 99.5974 191.765 99.8844 188.412C100.171 185.059 98.3514 180.355 98.3514 180.355C98.3514 180.355 92.9054 170.023 91.3514 167.412C90.5884 167.349 89.8884 167.321 89.2514 167.314C89.9208 168.276 90.4907 169.303 90.9524 170.38C91.2394 171.437 93.6404 177.471 93.6404 177.471L87.5994 183.505L78.2614 179.2C77.8928 176.513 77.1187 173.898 75.9654 171.444C75.4722 170.472 74.9108 169.536 74.2854 168.644L73.0674 169.344C73.4597 169.882 73.8197 170.443 74.1454 171.024C75.7694 173.901 76.1544 179.739 76.1544 179.739C76.1544 179.739 72.5144 184.821 71.6534 187.502C71.288 188.625 70.8412 189.72 70.3164 190.778L73.7044 197.491L74.2084 200.375L96.7554 198.506C96.7344 198.016 96.7204 197.715 96.7204 197.715Z" fill="#92E3A9" stroke="#263238" stroke-width="0.7" stroke-linecap="round" stroke-linejoin="round"/>
<path d="M51.2358 188.258C51.2358 188.258 46.1468 192.297 46.0628 194.439C45.9788 196.581 63.2758 212.408 64.5988 213.339C65.9218 214.27 67.1538 214.571 67.8958 214.242C68.6378 213.913 72.8378 211.526 72.8378 211.526C72.8378 211.526 77.9408 211.113 78.2698 210.623C78.5988 210.133 78.3538 210.042 77.3668 209.958C76.3798 209.874 75.1408 209.629 74.8958 209.629C74.6508 209.629 73.4118 209.468 73.4118 209.468C73.4118 209.468 78.9348 207.41 79.2638 207.326C79.5928 207.242 81.0768 207.158 80.8248 206.584C80.5728 206.01 79.0118 205.184 77.6118 204.771C76.2118 204.358 72.7538 204.029 71.7668 204.771C70.7798 205.513 66.8248 210.126 66.8248 210.126C64.9346 207.967 63.5054 205.444 62.6248 202.713C61.2248 198.261 55.7928 192.066 53.9798 190.813" fill="white"/>
<path d="M51.2358 188.258C51.2358 188.258 46.1468 192.297 46.0628 194.439C45.9788 196.581 63.2758 212.408 64.5988 213.339C65.9218 214.27 67.1538 214.571 67.8958 214.242C68.6378 213.913 72.8378 211.526 72.8378 211.526C72.8378 211.526 77.9408 211.113 78.2698 210.623C78.5988 210.133 78.3538 210.042 77.3668 209.958C76.3798 209.874 75.1408 209.629 74.8958 209.629C74.6508 209.629 73.4118 209.468 73.4118 209.468C73.4118 209.468 78.9348 207.41 79.2638 207.326C79.5928 207.242 81.0768 207.158 80.8248 206.584C80.5728 206.01 79.0118 205.184 77.6118 204.771C76.2118 204.358 72.7538 204.029 71.7668 204.771C70.7798 205.513 66.8248 210.126 66.8248 210.126C64.9346 207.967 63.5054 205.444 62.6248 202.713C61.2248 198.261 55.7928 192.066 53.9798 190.813" stroke="#263238" stroke-width="0.7" stroke-linecap="round" stroke-linejoin="round"/>
<path d="M73.168 207.718C73.168 207.718 75.226 206.976 76.71 206.479C78.194 205.982 79.342 205.576 80.084 206.066" stroke="#263238" stroke-width="0.7" stroke-linecap="round" stroke-linejoin="round"/>
<path d="M72.5078 206.15C74.1421 205.467 75.857 204.997 77.6108 204.75" stroke="#263238" stroke-width="0.7" stroke-linecap="round" stroke-linejoin="round"/>
<path d="M72.0117 205.324C72.7552 204.86 73.5582 204.5 74.3987 204.253" stroke="#263238" stroke-width="0.7" stroke-linecap="round" stroke-linejoin="round"/>
</svg>
