<svg width="25" height="25" viewBox="0 0 25 25" fill="none" xmlns="http://www.w3.org/2000/svg">
<path d="M23.0019 12.5C23.0019 9.71523 21.8957 7.04451 19.9265 5.07538C17.9574 3.10625 15.2867 2 12.5019 2C9.85792 1.99756 7.31034 2.99269 5.36805 4.78661C3.42575 6.58053 2.23174 9.04118 2.02451 11.677C1.81728 14.3129 2.61209 16.9299 4.25017 19.0053C5.88826 21.0807 8.24902 22.4617 10.8609 22.8725V15.5345H8.1969V12.5H10.8624V10.187C10.8624 7.556 12.4299 6.101 14.8284 6.101C15.9774 6.101 17.1789 6.3065 17.1789 6.3065V8.891H15.8544C14.5494 8.891 14.1444 9.701 14.1444 10.5305V12.5H17.0559L16.5909 15.5345H14.1429V22.8725C16.6127 22.4814 18.8618 21.2219 20.4858 19.3204C22.1098 17.419 23.002 15.0005 23.0019 12.5Z" fill="#1877F2"/>
<path d="M16.5878 15.5346L17.0528 12.5001H14.1413V10.5306C14.1413 9.70111 14.5463 8.89111 15.8513 8.89111H17.1758V6.30511C17.1758 6.30511 15.9743 6.09961 14.8253 6.09961C12.4253 6.09961 10.8593 7.55461 10.8593 10.1856V12.5001H8.19531V15.5346H10.8608V22.8726C11.9481 23.0437 13.0555 23.0437 14.1428 22.8726V15.5346H16.5878Z" fill="white"/>
</svg>
