<svg width="25" height="25" viewBox="0 0 25 25" fill="none" xmlns="http://www.w3.org/2000/svg">
<path d="M22.8485 12.7414C22.8485 12.0274 22.79 11.3104 22.667 10.6084H12.707V14.6509H18.41C18.2924 15.2978 18.0447 15.9141 17.6819 16.4625C17.3191 17.0109 16.8489 17.48 16.2995 17.8414V20.4664H19.703C21.701 18.6364 22.8485 15.9364 22.8485 12.7414Z" fill="#4285F4"/>
<path d="M12.7084 22.9999C15.5554 22.9999 17.9569 22.0699 19.7059 20.4649L16.3039 17.8414C15.3574 18.4819 14.1349 18.8449 12.7114 18.8449C9.95744 18.8449 7.62194 16.9969 6.78344 14.5129H3.27344V17.2174C4.15784 18.9593 5.50781 20.4218 7.17339 21.4426C8.83897 22.4634 10.7549 23.0025 12.7084 22.9999Z" fill="#34A853"/>
<path d="M6.77874 14.5131C6.33641 13.2096 6.33641 11.7966 6.77874 10.4931V7.78857H3.27174C2.53321 9.2504 2.14844 10.8653 2.14844 12.5031C2.14844 14.1409 2.53321 15.7558 3.27174 17.2176L6.77874 14.5131Z" fill="#FBBC04"/>
<path d="M12.7084 6.15503C14.2124 6.13064 15.6661 6.69598 16.7584 7.73003L19.7734 4.73153C17.8573 2.94662 15.3269 1.96886 12.7084 2.00153C10.7544 1.99905 8.83796 2.53864 7.17228 3.5603C5.50659 4.58196 4.15695 6.04563 3.27344 7.78853L6.77744 10.49C7.61144 8.00303 9.95144 6.15503 12.7054 6.15503H12.7084Z" fill="#EA4335"/>
</svg>
