<svg width="20" height="14" viewBox="0 0 20 14" fill="none" xmlns="http://www.w3.org/2000/svg">
<path d="M3.75 4.1875V9.1875C3.75 9.36 3.61 9.5 3.4375 9.5C3.265 9.5 3.125 9.36 3.125 9.1875V4.1875C3.125 4.015 3.265 3.875 3.4375 3.875C3.61 3.875 3.75 4.015 3.75 4.1875ZM4.6875 2.625C4.515 2.625 4.375 2.765 4.375 2.9375V10.4375C4.375 10.61 4.515 10.75 4.6875 10.75C4.86 10.75 5 10.61 5 10.4375V2.9375C5 2.765 4.86 2.625 4.6875 2.625ZM8.4375 3.25C8.265 3.25 8.125 3.39 8.125 3.5625V9.8125C8.125 9.985 8.265 10.125 8.4375 10.125C8.61 10.125 8.75 9.985 8.75 9.8125V3.5625C8.75 3.39 8.61 3.25 8.4375 3.25ZM7.1875 2C7.015 2 6.875 2.14 6.875 2.3125V11.0625C6.875 11.235 7.015 11.375 7.1875 11.375C7.36 11.375 7.5 11.235 7.5 11.0625V2.3125C7.5 2.14 7.36 2 7.1875 2ZM9.6875 2C9.515 2 9.375 2.14 9.375 2.3125V11.0625C9.375 11.235 9.515 11.375 9.6875 11.375C9.86 11.375 10 11.235 10 11.0625V2.3125C10 2.14 9.86 2 9.6875 2ZM12.1875 1.375C12.015 1.375 11.875 1.515 11.875 1.6875V11.6875C11.875 11.86 12.015 12 12.1875 12C12.36 12 12.5 11.86 12.5 11.6875V1.6875C12.5 1.515 12.36 1.375 12.1875 1.375ZM13.4375 3.25C13.265 3.25 13.125 3.39 13.125 3.5625V9.8125C13.125 9.985 13.265 10.125 13.4375 10.125C13.61 10.125 13.75 9.985 13.75 9.8125V3.5625C13.75 3.39 13.61 3.25 13.4375 3.25ZM14.6875 5.125C14.515 5.125 14.375 5.265 14.375 5.4375V7.9375C14.375 8.11 14.515 8.25 14.6875 8.25C14.86 8.25 15 8.11 15 7.9375V5.4375C15 5.265 14.86 5.125 14.6875 5.125ZM15.9375 4.5C15.765 4.5 15.625 4.64 15.625 4.8125V8.5625C15.625 8.735 15.765 8.875 15.9375 8.875C16.11 8.875 16.25 8.735 16.25 8.5625V4.8125C16.25 4.64 16.11 4.5 15.9375 4.5ZM17.1875 3.25C17.015 3.25 16.875 3.39 16.875 3.5625V9.8125C16.875 9.985 17.015 10.125 17.1875 10.125C17.36 10.125 17.5 9.985 17.5 9.8125V3.5625C17.5 3.39 17.36 3.25 17.1875 3.25ZM18.4375 4.5C18.265 4.5 18.125 4.64 18.125 4.8125V8.5625C18.125 8.735 18.265 8.875 18.4375 8.875C18.61 8.875 18.75 8.735 18.75 8.5625V4.8125C18.75 4.64 18.61 4.5 18.4375 4.5ZM19.6875 5.75C19.515 5.75 19.375 5.89 19.375 6.0625V7.3125C19.375 7.485 19.515 7.625 19.6875 7.625C19.86 7.625 20 7.485 20 7.3125V6.0625C20 5.89 19.86 5.75 19.6875 5.75ZM5.9375 1.375C5.765 1.375 5.625 1.515 5.625 1.6875V11.6875C5.625 11.86 5.765 12 5.9375 12C6.11 12 6.25 11.86 6.25 11.6875V1.6875C6.25 1.515 6.11 1.375 5.9375 1.375ZM10.9375 0.125C10.765 0.125 10.625 0.265 10.625 0.4375V12.9375C10.625 13.11 10.765 13.25 10.9375 13.25C11.11 13.25 11.25 13.11 11.25 12.9375V0.4375C11.25 0.265 11.11 0.125 10.9375 0.125ZM2.1875 5.125C2.015 5.125 1.875 5.265 1.875 5.4375V7.9375C1.875 8.11 2.015 8.25 2.1875 8.25C2.36 8.25 2.5 8.11 2.5 7.9375V5.4375C2.5 5.265 2.36 5.125 2.1875 5.125ZM0.9375 5.75C0.765 5.75 0.625 5.89 0.625 6.0625V7.3125C0.625 7.485 0.765 7.625 0.9375 7.625C1.11 7.625 1.25 7.485 1.25 7.3125V6.0625C1.25 5.89 1.11 5.75 0.9375 5.75Z" fill="#0B1719"/>
</svg>
