<svg width="29" height="29" viewBox="0 0 29 29" fill="none" xmlns="http://www.w3.org/2000/svg">
<path d="M10 27.5H2.5C1.67158 27.5 1 26.8285 1 26V14.6213C1 14.2235 1.15804 13.8419 1.43934 13.5607L13.4394 1.56068C14.0251 0.974889 14.9749 0.974889 15.5606 1.56068L27.5606 13.5607C27.8419 13.8419 28 14.2235 28 14.6213V26C28 26.8285 27.3284 27.5 26.5 27.5H19M10 27.5H19M10 27.5V18.5C10 17.6716 10.6716 17 11.5 17H17.5C18.3284 17 19 17.6716 19 18.5V27.5" stroke="black" stroke-width="1.5" stroke-linejoin="round"/>
</svg>
