<svg width="19" height="20" viewBox="0 0 19 20" fill="none" xmlns="http://www.w3.org/2000/svg">
<path d="M6.5 18.9998H1.5C0.94772 18.9998 0.5 18.5521 0.5 17.9998V10.4141C0.5 10.1489 0.60536 9.89445 0.79289 9.70695L8.7929 1.70696C9.1834 1.31643 9.8166 1.31643 10.2071 1.70696L18.2071 9.70695C18.3946 9.89445 18.5 10.1489 18.5 10.4141V17.9998C18.5 18.5521 18.0523 18.9998 17.5 18.9998H12.5M6.5 18.9998H12.5M6.5 18.9998V12.9999C6.5 12.4476 6.94772 11.9999 7.5 11.9999H11.5C12.0523 11.9999 12.5 12.4476 12.5 12.9999V18.9998" stroke="black" stroke-linejoin="round"/>
</svg>
