<svg width="25" height="22" viewBox="0 0 25 22" fill="none" xmlns="http://www.w3.org/2000/svg">
<path d="M1.64287 11C1.64287 5.63492 5.9921 1.28566 11.3572 1.28566C12.9091 1.28566 14.3744 1.64915 15.6743 2.29514C15.9569 2.43557 16.2999 2.32034 16.4404 2.03773C16.5807 1.75511 16.4655 1.41215 16.1829 1.27168C14.7286 0.548948 13.0895 0.142822 11.3571 0.142822C5.36089 0.142822 0.5 5.00374 0.5 11C0.5 16.9962 5.36092 21.8571 11.3571 21.8571C13.0895 21.8571 14.7286 21.4509 16.1829 20.7282C16.4655 20.5877 16.5807 20.2449 16.4404 19.9623C16.2999 19.6796 15.9569 19.5643 15.6743 19.7048C14.3744 20.3507 12.9091 20.7142 11.3572 20.7142C5.99212 20.7142 1.64287 16.365 1.64287 10.9999V11Z" fill="black"/>
<path d="M19.7612 6.02456C19.538 5.80138 19.1762 5.80138 18.953 6.02456C18.7299 6.24771 18.7299 6.60954 18.953 6.83269L22.549 10.4286H13.0714C12.7559 10.4286 12.5 10.6845 12.5 11.0001C12.5 11.3156 12.7559 11.5715 13.0714 11.5715H22.549L18.953 15.1674C18.7299 15.3906 18.7299 15.7524 18.953 15.9756C19.1762 16.1987 19.538 16.1987 19.7612 15.9756L24.3327 11.4042C24.3863 11.3507 24.4286 11.2871 24.4574 11.2171C24.4856 11.1482 24.5001 11.0745 24.5 11C24.5002 10.8545 24.4447 10.7145 24.3449 10.6086L24.3312 10.5946L19.7612 6.02456Z" fill="black"/>
</svg>
