<svg width="133" height="37" viewBox="0 0 133 37" fill="none" xmlns="http://www.w3.org/2000/svg">
<path d="M45.1388 3.77273C45.1388 2.49209 44.9491 1.40118 44.5697 0.5H64.8464C66.5539 5.05336 67.8108 10.6265 68.6171 17.2194C69.4709 23.8123 69.9215 30.0968 69.9689 36.0731H53.5341C53.2021 27.5356 51.8029 19.3063 49.3365 11.3854C45.21 19.4486 42.9807 27.6779 42.6487 36.0731H28.7041C27.4709 26.7767 25.0993 18.5237 21.5894 11.3142C19.0282 17.3379 17.7475 22.9348 17.7475 28.1047C17.7475 30.9032 18.0796 33.5593 18.7436 36.0731H1.45505C1.12304 34.1285 0.957031 31.5672 0.957031 28.3893C0.957031 25.164 1.43134 21.9387 2.37996 18.7134C5.74754 17.7174 8.97284 16.081 12.0558 13.8043C15.1863 11.5277 17.4867 9.03755 18.957 6.33399C17.7238 4.29446 16.4195 2.3498 15.044 0.5H37.5262C39.3286 5.38538 40.6804 10.6976 41.5815 16.4368C43.9531 12.0257 45.1388 7.80435 45.1388 3.77273Z" fill="#333333"/>
<path d="M85.5327 36.4289C85.0109 36.4763 83.4932 36.5 80.9793 36.5C78.5129 36.5 76.3548 36.3577 74.505 36.0731C75.4536 33.8913 75.9754 31.4723 76.0702 28.8162C78.7738 29.2905 82.758 29.5277 88.0228 29.5277C87.3588 32.1838 86.5287 34.4842 85.5327 36.4289Z" fill="#333333"/>
<path d="M118.313 14.8004L125.001 15.2273C125.665 15.2273 126.163 15.2036 126.495 15.1561L123.151 21.417H122.511C121.61 21.417 120.329 21.1798 118.669 20.7055C117.009 20.1838 115.823 19.9229 115.112 19.9229C113.167 19.9229 111.626 21.1798 110.487 23.6937C110.298 26.0178 110.155 28.3419 110.06 30.666C112.527 31.1403 114.471 31.3775 115.894 31.3775H116.535C118.574 31.3775 120.187 30.9269 121.373 30.0257C122.606 29.1245 123.483 27.5119 124.005 25.1877L132.543 25.5435C131.831 29.6225 130.882 33.1324 129.697 36.0731H94.7639C93.8153 29.67 93.341 23.3142 93.341 17.0059C93.341 10.6976 93.673 5.19565 94.337 0.5H132.471C131.618 5.62253 130.859 9.22727 130.195 11.3142C127.396 11.4565 124.835 11.5514 122.511 11.5988C122.89 10.5079 123.08 9.48814 123.08 8.53952C123.08 6.26284 121.373 5.1245 117.958 5.1245C116.677 5.1245 115.254 5.2668 113.689 5.55138C112.645 10.0573 111.839 14.0178 111.27 17.4328C113.167 15.6779 115.515 14.8004 118.313 14.8004Z" fill="#333333"/>
</svg>
