<svg width="17" height="21" viewBox="0 0 17 21" fill="none" xmlns="http://www.w3.org/2000/svg">
<path d="M6.00055 17C5.3961 17 3.51292 17 2.11769 17C1.3743 17 0.891713 16.2177 1.22416 15.5528L2.07826 13.8446C2.35597 13.2892 2.50055 12.6774 2.50055 12.0564C2.50055 11.2867 2.50055 10.1434 2.50055 9C2.50055 7 3.50055 3 8.50055 3C13.5006 3 14.5006 7 14.5006 9C14.5006 10.1434 14.5006 11.2867 14.5006 12.0564C14.5006 12.6774 14.6452 13.2892 14.9229 13.8446L15.777 15.5528C16.1094 16.2177 15.6259 17 14.8826 17H11.0006M6.00055 17C6.00055 19 7.00055 20 8.50055 20C10.0006 20 11.0006 19 11.0006 17M6.00055 17C7.56265 17 11.0006 17 11.0006 17" stroke="black" stroke-linejoin="round"/>
<path d="M8.5 3V1" stroke="black" stroke-linecap="round" stroke-linejoin="round"/>
</svg>
