<svg width="25" height="20" viewBox="0 0 25 20" fill="none" xmlns="http://www.w3.org/2000/svg">
<path d="M22.5 0.5H3C1.75725 0.5 0.75 1.50725 0.75 2.75V16.25C0.75 17.4928 1.75725 18.5 3 18.5H10.5C10.5 18.914 10.836 19.25 11.25 19.25H14.25C14.664 19.25 15 18.914 15 18.5H22.5C23.7428 18.5 24.75 17.4928 24.75 16.25V2.75C24.75 1.50725 23.7428 0.5 22.5 0.5ZM22.5 1.25V16.25H14.781C14.3175 16.25 13.854 16.3595 13.4393 16.5665L13.125 16.724V1.25H22.5ZM12.375 1.25V16.724L12.0608 16.5665C11.646 16.3595 11.1825 16.25 10.719 16.25H3V1.25H12.375ZM24 16.25C24 17.0772 23.3272 17.75 22.5 17.75H14.25V18.5H11.25V17.75H3C2.17275 17.75 1.5 17.0772 1.5 16.25V2.75C1.5 2.19725 1.80375 1.71875 2.25 1.4585V16.25C2.25 16.664 2.586 17 3 17H10.719C11.0685 17 11.4128 17.081 11.7255 17.2377L12.4148 17.5828C12.5205 17.6353 12.6353 17.6623 12.75 17.6623C12.8647 17.6623 12.9795 17.636 13.0853 17.5828L13.7745 17.2377C14.0872 17.081 14.4315 17 14.781 17H22.5C22.914 17 23.25 16.664 23.25 16.25V1.4585C23.6963 1.71875 24 2.19725 24 2.75V16.25ZM5.25 6.875C5.25 6.668 5.418 6.5 5.625 6.5H9.375C9.582 6.5 9.75 6.668 9.75 6.875C9.75 7.082 9.582 7.25 9.375 7.25H5.625C5.418 7.25 5.25 7.082 5.25 6.875ZM5.25 8.375C5.25 8.168 5.418 8 5.625 8H9.375C9.582 8 9.75 8.168 9.75 8.375C9.75 8.582 9.582 8.75 9.375 8.75H5.625C5.418 8.75 5.25 8.582 5.25 8.375ZM5.25 9.875C5.25 9.668 5.418 9.5 5.625 9.5H9.375C9.582 9.5 9.75 9.668 9.75 9.875C9.75 10.082 9.582 10.25 9.375 10.25H5.625C5.418 10.25 5.25 10.082 5.25 9.875ZM15.75 6.875C15.75 6.668 15.918 6.5 16.125 6.5H19.875C20.082 6.5 20.25 6.668 20.25 6.875C20.25 7.082 20.082 7.25 19.875 7.25H16.125C15.918 7.25 15.75 7.082 15.75 6.875ZM15.75 8.375C15.75 8.168 15.918 8 16.125 8H19.875C20.082 8 20.25 8.168 20.25 8.375C20.25 8.582 20.082 8.75 19.875 8.75H16.125C15.918 8.75 15.75 8.582 15.75 8.375ZM15.75 9.875C15.75 9.668 15.918 9.5 16.125 9.5H19.875C20.082 9.5 20.25 9.668 20.25 9.875C20.25 10.082 20.082 10.25 19.875 10.25H16.125C15.918 10.25 15.75 10.082 15.75 9.875Z" fill="#0B1719"/>
</svg>
