<svg width="27" height="24" viewBox="0 0 27 24" fill="none" xmlns="http://www.w3.org/2000/svg">
<path d="M2.47995 14.4029C1.82666 13.2285 1.5 12.6412 1.5 12.0001C1.5 11.3591 1.82666 10.7718 2.47997 9.59738L4.14718 6.60028L5.90913 3.65788C6.59955 2.50489 6.94477 1.92839 7.49999 1.60784C8.05521 1.28728 8.72708 1.27656 10.0708 1.25513L13.5 1.20044L16.9292 1.25513C18.2729 1.27656 18.9448 1.28728 19.5 1.60784C20.0552 1.92839 20.4004 2.50489 21.0908 3.65788L22.8528 6.60028L24.52 9.59738C25.1733 10.7718 25.5 11.3591 25.5 12.0001C25.5 12.6412 25.1733 13.2285 24.52 14.4029L22.8528 17.4L21.0908 20.3423C20.4004 21.4953 20.0552 22.0719 19.5 22.3924C18.9448 22.713 18.2729 22.7237 16.9292 22.7451L13.5 22.7998L10.0708 22.7451C8.72708 22.7237 8.05521 22.713 7.49999 22.3924C6.94477 22.0719 6.59955 21.4953 5.90913 20.3423L4.14718 17.4L2.47995 14.4029Z" stroke="#222222" stroke-width="1.23566"/>
<path d="M13.5 15.7069C15.5473 15.7069 17.2069 14.0473 17.2069 12C17.2069 9.95264 15.5473 8.29297 13.5 8.29297C11.4526 8.29297 9.79297 9.95264 9.79297 12C9.79297 14.0473 11.4526 15.7069 13.5 15.7069Z" stroke="#222222" stroke-width="1.23566"/>
</svg>
