<svg width="18" height="16" viewBox="0 0 18 16" fill="none" xmlns="http://www.w3.org/2000/svg">
<path d="M17.404 14.7352L13.029 5.98523C13.0031 5.93333 12.9632 5.88968 12.9138 5.85917C12.8644 5.82866 12.8075 5.8125 12.7495 5.8125C12.6915 5.8125 12.6346 5.82866 12.5852 5.85917C12.5359 5.88968 12.496 5.93333 12.47 5.98523L10.6845 9.55617C9.0997 9.5136 7.57336 8.94849 6.34292 7.94873C7.76528 6.5578 8.60155 4.67537 8.68022 2.6875H10.8745C10.9574 2.6875 11.0369 2.65458 11.0955 2.59597C11.1541 2.53737 11.187 2.45788 11.187 2.375C11.187 2.29212 11.1541 2.21263 11.0955 2.15403C11.0369 2.09542 10.9574 2.0625 10.8745 2.0625H6.18701V0.5C6.18701 0.41712 6.15409 0.337634 6.09548 0.279029C6.03688 0.220424 5.95739 0.1875 5.87451 0.1875C5.79163 0.1875 5.71215 0.220424 5.65354 0.279029C5.59493 0.337634 5.56201 0.41712 5.56201 0.5V2.0625H0.874512C0.791632 2.0625 0.712146 2.09542 0.653541 2.15403C0.594936 2.21263 0.562012 2.29212 0.562012 2.375C0.562012 2.45788 0.594936 2.53737 0.653541 2.59597C0.712146 2.65458 0.791632 2.6875 0.874512 2.6875H8.0548C7.97567 4.52278 7.19489 6.25762 5.87363 7.53387C5.07513 6.76302 4.4667 5.81713 4.09637 4.77086C4.0687 4.69276 4.01115 4.62884 3.93637 4.59316C3.86159 4.55748 3.7757 4.55296 3.69758 4.5806C3.61947 4.60823 3.55553 4.66575 3.51982 4.74052C3.48411 4.81528 3.47955 4.90117 3.50715 4.9793C3.90457 6.10161 4.55417 7.1178 5.40595 7.94967C4.12691 8.9942 2.52587 9.56404 0.874512 9.5625C0.791632 9.5625 0.712146 9.59542 0.653541 9.65403C0.594936 9.71263 0.562012 9.79212 0.562012 9.875C0.562012 9.95788 0.594936 10.0374 0.653541 10.096C0.712146 10.1546 0.791632 10.1875 0.874512 10.1875C2.70262 10.1892 4.47288 9.54675 5.87447 8.37308C7.14786 9.43338 8.72511 10.0618 10.3788 10.1678L8.09501 14.7352C8.07665 14.7719 8.06571 14.8119 8.0628 14.8528C8.05988 14.8938 8.06506 14.9349 8.07804 14.9738C8.09102 15.0127 8.11153 15.0487 8.13842 15.0797C8.16531 15.1107 8.19804 15.1361 8.23474 15.1545C8.30887 15.1916 8.39469 15.1977 8.47332 15.1715C8.55195 15.1453 8.61694 15.0889 8.65401 15.0148L9.81765 12.6875H15.6814L16.845 15.0148C16.8821 15.0889 16.9471 15.1453 17.0257 15.1715C17.1043 15.1977 17.1902 15.1916 17.2643 15.1545C17.3384 15.1174 17.3948 15.0524 17.421 14.9738C17.4472 14.8952 17.4411 14.8094 17.404 14.7352ZM10.1301 12.0625L12.7495 6.82378L15.3689 12.0625H10.1301Z" fill="black"/>
</svg>
